<svg width="417" height="242" viewBox="0 0 417 242" fill="none" xmlns="http://www.w3.org/2000/svg">
<path d="M208.547 174.963C323.673 174.963 417 189.966 417 208.472C417 226.979 323.673 241.981 208.547 241.981C93.4214 241.981 0.09375 226.979 0.09375 208.472C0.09375 189.966 93.4214 174.963 208.547 174.963Z" fill="#EAECF0"/>
<path d="M337.926 10.1631H88.7695C83.2467 10.1631 78.7695 14.6402 78.7695 20.1631V180.21C78.7695 185.733 83.2467 190.21 88.7695 190.21H337.926C343.449 190.21 347.926 185.733 347.926 180.21V20.1631C347.926 14.6402 343.449 10.1631 337.926 10.1631Z" fill="#D0D5DD"/>
<path d="M335.96 12.3608H90.7188C85.1959 12.3608 80.7188 16.838 80.7188 22.3608V178.013C80.7188 183.536 85.1959 188.013 90.7188 188.013H335.96C341.483 188.013 345.96 183.536 345.96 178.013V22.3608C345.96 16.838 341.483 12.3608 335.96 12.3608Z" fill="#1D2939"/>
<path d="M100.079 28.5691C100.079 28.8502 99.9953 29.1249 99.8391 29.3587C99.683 29.5924 99.461 29.7745 99.2013 29.8821C98.9416 29.9896 98.6559 30.0178 98.3802 29.9629C98.1045 29.9081 97.8513 29.7728 97.6526 29.574C97.4538 29.3753 97.3185 29.122 97.2636 28.8464C97.2088 28.5707 97.2369 28.2849 97.3445 28.0253C97.4521 27.7656 97.6342 27.5436 97.8679 27.3875C98.1016 27.2313 98.3764 27.1479 98.6575 27.1479C99.0344 27.1479 99.3959 27.2977 99.6624 27.5642C99.9289 27.8307 100.079 28.1922 100.079 28.5691Z" fill="#C7C7C7"/>
<path d="M105.883 28.5691C105.883 28.8502 105.8 29.125 105.644 29.3587C105.488 29.5924 105.266 29.7745 105.006 29.8821C104.746 29.9897 104.461 30.0178 104.185 29.963C103.909 29.9081 103.656 29.7728 103.457 29.574C103.259 29.3753 103.123 29.122 103.068 28.8464C103.013 28.5707 103.042 28.2849 103.149 28.0253C103.257 27.7656 103.439 27.5436 103.673 27.3875C103.906 27.2313 104.181 27.148 104.462 27.148C104.649 27.1472 104.834 27.1835 105.007 27.2546C105.18 27.3258 105.337 27.4304 105.469 27.5625C105.601 27.6946 105.706 27.8516 105.777 28.0244C105.848 28.1971 105.884 28.3823 105.883 28.5691Z" fill="white"/>
<path d="M111.665 28.5691C111.665 28.8502 111.581 29.125 111.425 29.3587C111.269 29.5924 111.047 29.7745 110.787 29.8821C110.528 29.9897 110.242 30.0178 109.966 29.963C109.69 29.9081 109.437 29.7728 109.239 29.574C109.04 29.3753 108.904 29.122 108.85 28.8464C108.795 28.5707 108.823 28.2849 108.93 28.0253C109.038 27.7656 109.22 27.5436 109.454 27.3875C109.688 27.2313 109.962 27.148 110.243 27.148C110.43 27.1472 110.615 27.1835 110.788 27.2546C110.961 27.3258 111.118 27.4304 111.25 27.5625C111.382 27.6946 111.487 27.8516 111.558 28.0244C111.629 28.1971 111.665 28.3823 111.665 28.5691Z" fill="#FFC727"/>
<path d="M330.979 31.4346H326.801V174.663H330.979V31.4346Z" fill="#DBDBDB"/>
<path d="M328.899 81.0896C328.613 81.0896 328.339 80.9759 328.136 80.7737C327.934 80.5714 327.82 80.297 327.82 80.0109V33.3526C327.82 33.0665 327.934 32.7922 328.136 32.5899C328.339 32.3876 328.613 32.2739 328.899 32.2739C329.185 32.2739 329.459 32.3876 329.662 32.5899C329.864 32.7922 329.978 33.0665 329.978 33.3526V80.0109C329.978 80.297 329.864 80.5714 329.662 80.7737C329.459 80.9759 329.185 81.0896 328.899 81.0896Z" fill="#A6A6A6"/>
<path d="M334.214 24.2515H86.5117V181.472H334.214V24.2515Z" fill="#F0F4FF"/>
<path d="M333.929 28.4678H86.6816V62.5365H333.929V28.4678Z" fill="#C9D7FF"/>
<path d="M323.027 35.0771H269.822V42.181H323.027V35.0771Z" fill="white"/>
<path d="M323.099 35.0068H315.848V42.2582H323.099V35.0068Z" fill="#667085"/>
<path d="M321.731 40.6228L321.09 41.1169L319.871 39.5126L319.428 38.9287C319.519 38.8907 319.606 38.8411 319.684 38.7811C319.832 38.6677 319.947 38.5172 320.018 38.3447L320.493 38.9864L321.731 40.6228Z" fill="white"/>
<path d="M320.433 36.842C320.226 36.5707 319.945 36.3645 319.624 36.2475C319.304 36.1305 318.956 36.1077 318.623 36.1818C318.289 36.2559 317.984 36.4238 317.743 36.6657C317.502 36.9076 317.335 37.2133 317.262 37.5469C317.189 37.8805 317.213 38.2281 317.331 38.5485C317.449 38.8689 317.656 39.1489 317.928 39.3555C318.2 39.562 318.526 39.6864 318.866 39.7141C319.206 39.7417 319.548 39.6715 319.849 39.5116C319.939 39.468 320.023 39.4141 320.1 39.3511C320.241 39.2408 320.366 39.1112 320.472 38.9661C320.693 38.6543 320.809 38.2799 320.802 37.8977C320.795 37.5155 320.666 37.1456 320.433 36.842ZM319.663 38.7672C319.584 38.8272 319.498 38.8768 319.407 38.9148C319.221 38.9881 319.019 39.0083 318.823 38.9731C318.627 38.9379 318.444 38.8488 318.296 38.7156C318.148 38.5825 318.04 38.4106 317.984 38.2193C317.928 38.0281 317.926 37.825 317.979 37.6329C318.032 37.4408 318.138 37.2673 318.284 37.1319C318.43 36.9966 318.611 36.9046 318.807 36.8665C319.003 36.8283 319.205 36.8454 319.391 36.9159C319.578 36.9864 319.741 37.1075 319.862 37.2656C319.975 37.4161 320.047 37.5936 320.071 37.7803C320.094 37.9671 320.069 38.1568 319.997 38.3308C319.928 38.5079 319.813 38.6631 319.663 38.78V38.7672Z" fill="white"/>
<path d="M271.685 36.4761H271.307V40.7884H271.685V36.4761Z" fill="#EAECF0"/>
<path d="M260.449 35.0771H115.723V42.181H260.449V35.0771Z" fill="white"/>
<path d="M260.509 42.2518H115.635V35.0068H260.509V42.2518ZM115.782 42.1042H260.361V35.1609H115.782V42.1042Z" fill="white"/>
<path d="M117.578 36.4761H117.199V40.7884H117.578V36.4761Z" fill="#C7C7C7"/>
<path d="M102.315 41.059L99.7285 38.6782L102.308 36.2012L102.713 36.6183L100.576 38.6718L102.706 40.6354L102.315 41.059Z" fill="white"/>
<path d="M108.546 36.2012L111.138 38.5819L108.552 41.059L108.154 40.6354L110.291 38.5884L108.154 36.6247L108.546 36.2012Z" fill="white"/>
<path d="M184.786 151.62H213.445V121.145H184.786V151.62Z" fill="#EBEBEB"/>
<path d="M188.73 127.811C188.574 128.57 188.667 129.359 188.994 130.061C189.321 130.763 189.865 131.342 190.547 131.71C191.228 132.079 192.01 132.218 192.777 132.108C193.544 131.997 194.254 131.643 194.804 131.097C195.354 130.551 195.713 129.843 195.829 129.077C195.944 128.311 195.81 127.528 195.446 126.844C195.083 126.16 194.508 125.612 193.808 125.28C193.108 124.948 192.32 124.85 191.56 125.001C190.865 125.14 190.225 125.48 189.722 125.98C189.219 126.48 188.874 127.117 188.73 127.811Z" fill="white"/>
<path d="M213.446 145.055H184.787V151.62H213.446V145.055Z" fill="#DBDBDB"/>
<path d="M194.254 145.08L213.448 145.054L203.86 133.234L194.254 145.08Z" fill="#C7C7C7"/>
<path d="M184.787 145.08H201.831L193.309 137.367L184.787 145.08Z" fill="#DBDBDB"/>
<path opacity="0.7" d="M98.082 115.099H154.438V71.8603H98.082V115.099Z" fill="#C9D7FF"/>
<path d="M103.699 81.3197C103.481 82.4005 103.617 83.5228 104.086 84.5204C104.555 85.5181 105.334 86.3381 106.305 86.8592C107.277 87.3802 108.39 87.5746 109.481 87.4136C110.572 87.2525 111.582 86.7446 112.361 85.965C113.141 85.1854 113.649 84.1755 113.81 83.0847C113.971 81.994 113.777 80.8804 113.256 79.9087C112.735 78.9371 111.915 78.159 110.917 77.6896C109.919 77.2202 108.797 77.0845 107.716 77.3026C106.726 77.5024 105.816 77.9902 105.101 78.7048C104.387 79.4194 103.899 80.329 103.699 81.3197Z" fill="white"/>
<path d="M116.676 105.789H154.434L135.555 82.5137L116.676 105.789Z" fill="#A1B5FF"/>
<path d="M98.1055 105.788H131.59L114.848 90.6304L98.1055 105.788Z" fill="#A1B5FF"/>
<path d="M154.461 105.788H98.1055V115.105H154.461V105.788Z" fill="#A1B5FF"/>
<path d="M177.624 138.014H97.6914V140.523H177.624V138.014Z" fill="#C9D7FF"/>
<path d="M177.624 143.541H97.6914V146.05H177.624V143.541Z" fill="#C9D7FF"/>
<path d="M177.624 149.059H97.6914V151.568H177.624V149.059Z" fill="#C9D7FF"/>
<path d="M321.649 111.709H222.91V114.563H321.649V111.709Z" fill="#C9D7FF"/>
<path d="M321.649 117.416H222.91V119.699H321.649V117.416Z" fill="#C9D7FF"/>
<path d="M321.649 123.123H222.91V125.406H321.649V123.123Z" fill="#C9D7FF"/>
<path d="M321.649 128.259H222.91V131.113H321.649V128.259Z" fill="#C9D7FF"/>
<path d="M323.101 88.7373H277.789V91.2464H323.101V88.7373Z" fill="#EBEBEB"/>
<path d="M323.101 94.2559H277.789V96.765H323.101V94.2559Z" fill="#EBEBEB"/>
<path d="M193.043 71.8667H163.203V78.5855H193.043V71.8667Z" fill="#A1B5FF"/>
<path d="M213.443 83.2124H163.203V85.7215H213.443V83.2124Z" fill="#C9D7FF"/>
<path d="M213.443 88.7373H163.203V91.2464H213.443V88.7373Z" fill="#C9D7FF"/>
<path d="M242.101 76.1861V107.269H233.317V76.1861C233.317 64.366 224.34 54.7547 213.296 54.7547C202.252 54.7547 193.274 64.366 193.274 76.1861V107.269H184.49V76.1861C184.49 59.2578 197.412 45.5029 213.296 45.5029C229.179 45.5029 242.101 59.2578 242.101 76.1861Z" fill="#344054"/>
<path d="M184.49 84.2681L193.274 84.6219V107.269H184.49V84.2681Z" fill="#1D2939"/>
<path d="M242.127 86.614V107.269H233.344V86.2544L242.127 86.614Z" fill="#1D2939"/>
<path d="M253.379 89.5698H173.252V162.265H253.379V89.5698Z" fill="#4F69FF"/>
<path opacity="0.1" d="M253.371 89.5698H213.311V162.265H253.371V89.5698Z" fill="#1D2939"/>
<path d="M216.708 128.581L220.059 144.487H205.824L209.18 128.581C207.868 127.763 206.858 126.54 206.302 125.097C205.747 123.654 205.676 122.07 206.102 120.583C206.527 119.096 207.425 117.789 208.659 116.858C209.894 115.927 211.398 115.423 212.944 115.423C214.49 115.423 215.995 115.927 217.229 116.858C218.464 117.789 219.362 119.096 219.787 120.583C220.212 122.07 220.142 123.654 219.586 125.097C219.031 126.54 218.021 127.763 216.708 128.581Z" fill="#1D2939"/>
<path d="M86.0196 47.7715C98.5846 47.7715 108.771 37.5856 108.771 25.0205C108.771 12.4555 98.5846 2.26953 86.0196 2.26953C73.4545 2.26953 63.2686 12.4555 63.2686 25.0205C63.2686 37.5856 73.4545 47.7715 86.0196 47.7715Z" fill="#F2F4F7"/>
<path d="M86.0227 50.0312C81.077 50.0312 76.2423 48.5646 72.1301 45.8169C68.0178 43.0692 64.8127 39.1638 62.9201 34.5946C61.0274 30.0253 60.5322 24.9974 61.4971 20.1467C62.462 15.296 64.8436 10.8403 68.3407 7.34316C71.8379 3.846 76.2936 1.4644 81.1443 0.499539C85.995 -0.465327 91.0229 0.0298796 95.5921 1.92253C100.161 3.81518 104.067 7.02028 106.815 11.1325C109.562 15.2447 111.029 20.0794 111.029 25.0251C111.019 31.6542 108.382 38.009 103.694 42.6965C99.0066 47.384 92.6518 50.0216 86.0227 50.0312ZM86.0227 0.473703C81.1669 0.473703 76.4201 1.91362 72.3827 4.61137C68.3452 7.30911 65.1984 11.1435 63.3401 15.6297C61.4819 20.1159 60.9957 25.0524 61.943 29.8149C62.8903 34.5774 65.2286 38.952 68.6622 42.3856C72.0958 45.8192 76.4704 48.1575 81.233 49.1048C85.9955 50.0522 90.9319 49.5659 95.4181 47.7077C99.9043 45.8495 103.739 42.7026 106.436 38.6652C109.134 34.6277 110.574 29.881 110.574 25.0251C110.568 18.5147 107.98 12.2725 103.377 7.66809C98.7744 3.06366 92.5331 0.473041 86.0227 0.464615V0.473703Z" fill="#7891FF"/>
<path d="M100.347 17.7913C100.347 17.7913 98.3194 34.0362 94.9868 37.6916C90.9813 42.0745 88.076 41.4334 86.462 43.6976C84.8434 41.4243 81.9382 42.079 77.9327 37.6916C74.5955 34.0544 72.5723 17.7913 72.5723 17.7913C81.3608 13.5221 86.462 8.74365 86.462 8.74365C86.6166 8.89369 91.6996 13.5903 100.347 17.7913Z" fill="#FEC84B"/>
<path d="M74.7207 19.1009C74.7207 19.1009 76.4348 32.8224 79.2673 35.9232C82.6499 39.6332 85.1051 39.1058 86.4736 41.0017C87.8375 39.0922 90.2927 39.6377 93.6799 35.9232C96.4942 32.8361 98.2037 19.1009 98.2037 19.1009C90.7837 15.4955 86.4736 11.4536 86.4736 11.4536C86.4736 11.4536 82.1452 15.4955 74.7207 19.1009Z" fill="#FFC727"/>
<path opacity="0.3" d="M98.1956 19.1013C98.1956 19.1013 96.4815 32.8228 93.649 35.9235C90.2664 39.629 87.8158 39.1061 86.4473 40.993V11.4585C86.5928 11.5858 90.8847 15.5504 98.1956 19.1013Z" fill="white"/>
<path d="M89.0269 23.4249V25.5572H88.2767V23.4249C88.2888 23.1872 88.2524 22.9495 88.1698 22.7264C88.0872 22.5032 87.9601 22.2991 87.7961 22.1266C87.6322 21.9541 87.4349 21.8167 87.2162 21.7229C86.9975 21.629 86.762 21.5806 86.524 21.5806C86.286 21.5806 86.0505 21.629 85.8318 21.7229C85.6131 21.8167 85.4158 21.9541 85.2518 22.1266C85.0879 22.2991 84.9608 22.5032 84.8781 22.7264C84.7955 22.9495 84.7592 23.1872 84.7713 23.4249V25.5572H84.0029V23.4249C83.9774 23.0782 84.0236 22.73 84.1388 22.402C84.2539 22.074 84.4355 21.7733 84.6721 21.5187C84.9086 21.264 85.1952 21.0609 85.5139 20.922C85.8325 20.7831 86.1764 20.7114 86.524 20.7114C86.8716 20.7114 87.2155 20.7831 87.5341 20.922C87.8527 21.0609 88.1393 21.264 88.3759 21.5187C88.6125 21.7733 88.794 22.074 88.9092 22.402C89.0243 22.73 89.0706 23.0782 89.045 23.4249H89.0269Z" fill="white"/>
<path d="M82.9922 23.957V30.3222H90.0075V23.957H82.9922ZM87.0841 28.7673H85.8383L86.1339 27.3715C86.0414 27.3144 85.9655 27.2341 85.9137 27.1386C85.8619 27.0431 85.836 26.9357 85.8385 26.827C85.841 26.7184 85.872 26.6123 85.9282 26.5193C85.9844 26.4264 86.0639 26.3497 86.1589 26.297C86.2539 26.2442 86.3611 26.2173 86.4697 26.2188C86.5784 26.2202 86.6848 26.2501 86.7783 26.3054C86.8718 26.3607 86.9493 26.4396 87.0029 26.5341C87.0565 26.6286 87.0845 26.7354 87.0841 26.8441C87.0841 26.9494 87.0575 27.0531 87.0066 27.1453C86.9557 27.2375 86.8823 27.3154 86.7931 27.3715L87.0841 28.7673Z" fill="white"/>
<path d="M316.951 170.464L332.503 183.021C335.488 185.406 338.062 187.552 339.289 188.791C339.606 189.051 339.862 189.379 340.037 189.75C340.037 189.75 340.037 189.75 340.037 189.784C339.929 191.148 321.551 215.559 320.632 216.192C319.713 216.826 317.818 214.235 317.778 212.722C317.738 211.21 320.592 198.71 320.592 198.71L305.182 186.006L316.951 170.464Z" fill="#C95F50"/>
<path d="M329.328 180.458L332.519 183.033C335.504 185.418 338.078 187.564 339.305 188.803C339.591 189.092 339.842 189.414 340.053 189.762C340.053 189.762 340.053 189.762 340.053 189.796C339.944 191.16 321.566 215.571 320.647 216.204C319.729 216.838 317.834 214.247 317.794 212.734C317.754 211.222 320.608 198.722 320.608 198.722L317.331 196.148L329.328 180.458Z" fill="white"/>
<path d="M320.676 216.221C321.606 215.588 339.979 191.183 340.081 189.807C340.133 189.288 336.731 186.383 332.525 183.038L332.388 182.93L320.385 198.545L320.653 198.739C320.653 198.739 317.8 211.227 317.84 212.751C317.88 214.275 319.752 216.86 320.676 216.221Z" fill="#FEC84B"/>
<path opacity="0.1" d="M319.693 200.098C320.612 198.254 322.347 196.456 324.436 196.103C324.516 196.103 324.533 196.2 324.476 196.245C322.815 197.41 321.285 198.749 319.91 200.24C319.889 200.264 319.861 200.279 319.829 200.283C319.798 200.287 319.767 200.28 319.74 200.262C319.714 200.245 319.695 200.219 319.686 200.189C319.678 200.159 319.68 200.126 319.693 200.098Z" fill="#1D2939"/>
<path opacity="0.1" d="M319.499 201.799C320.418 199.95 322.158 198.158 324.242 197.804C324.321 197.804 324.339 197.906 324.287 197.946C322.627 199.111 321.096 200.451 319.721 201.942C319.712 201.956 319.7 201.969 319.685 201.979C319.671 201.989 319.655 201.996 319.638 201.999C319.621 202.003 319.604 202.003 319.587 202C319.57 201.997 319.553 201.991 319.539 201.982C319.524 201.972 319.511 201.96 319.501 201.946C319.492 201.932 319.485 201.915 319.481 201.899C319.477 201.882 319.477 201.864 319.48 201.847C319.483 201.83 319.489 201.814 319.499 201.799Z" fill="#1D2939"/>
<path opacity="0.1" d="M319.332 203.494C320.245 201.65 321.986 199.858 324.069 199.499C324.149 199.499 324.172 199.601 324.115 199.641C322.455 200.807 320.925 202.146 319.549 203.636C319.539 203.651 319.527 203.663 319.513 203.672C319.499 203.682 319.483 203.689 319.467 203.692C319.45 203.696 319.433 203.696 319.416 203.693C319.399 203.689 319.383 203.683 319.369 203.674C319.355 203.664 319.343 203.652 319.333 203.638C319.323 203.624 319.317 203.608 319.313 203.591C319.31 203.575 319.31 203.557 319.313 203.541C319.316 203.524 319.323 203.508 319.332 203.494Z" fill="#1D2939"/>
<path d="M308.556 155.501C309.657 160.94 332.219 182.634 332.219 182.634L316.489 200.789C316.489 200.789 284.459 168.828 286.131 156.802C287.587 146.352 303.254 104.328 303.254 104.328H321.278C321.278 104.328 307.477 150.153 308.556 155.501Z" fill="#37474F"/>
<path d="M308.556 155.501C309.657 160.94 332.219 182.634 332.219 182.634L316.489 200.789C316.489 200.789 284.459 168.828 286.131 156.802C287.587 146.352 303.254 104.328 303.254 104.328H321.278C321.278 104.328 307.477 150.153 308.556 155.501Z" fill="#98A2B3"/>
<path d="M306.315 152.851C306.578 151.493 306.886 150.14 307.154 148.788C307.744 146.025 308.366 143.272 309.02 140.529C310.322 135.084 311.735 129.67 313.261 124.286C314.796 118.886 316.423 113.493 318.301 108.196C318.529 107.54 318.769 106.889 319.008 106.239C319.008 106.228 319.013 106.218 319.02 106.21C319.028 106.203 319.038 106.199 319.048 106.199C319.059 106.199 319.069 106.203 319.077 106.21C319.084 106.218 319.088 106.228 319.088 106.239C317.462 111.547 315.789 116.837 314.271 122.168C312.753 127.499 311.355 132.83 310.031 138.195C309.368 140.889 308.752 143.594 308.147 146.299C307.85 147.629 307.576 148.965 307.28 150.294C306.927 151.648 306.674 153.025 306.52 154.415C306.479 155.732 306.85 157.029 307.582 158.125C308.261 159.232 309.055 160.271 309.825 161.315C311.366 163.404 326.057 179.779 326.531 180.224C326.571 180.258 326.531 180.31 326.474 180.275C324.505 178.506 312.04 165.014 310.459 162.925C309.671 161.892 308.912 160.847 308.176 159.786C307.426 158.828 306.822 157.764 306.383 156.63C306.037 155.397 306.013 154.096 306.315 152.851Z" fill="#667085"/>
<path d="M306.372 104.328L309.648 147.334C312.776 132.614 321.297 104.328 321.297 104.328H306.372Z" fill="#667085"/>
<path d="M314.105 192.871C314.105 192.871 310.207 211.843 310.207 211.86C310.156 215.678 310.042 219.028 309.825 220.758C309.82 221.167 309.718 221.57 309.528 221.933C308.387 222.687 277.835 223.16 276.762 222.818C275.689 222.476 276.579 219.394 277.755 218.435C278.931 217.476 290.539 212.059 290.539 212.059L294.626 193.099L314.105 192.871Z" fill="#C95F50"/>
<path d="M276.723 222.871C277.79 223.213 308.342 222.739 309.489 221.986C309.676 221.621 309.777 221.219 309.786 220.81C309.789 220.799 309.789 220.787 309.786 220.776C310.009 219.064 310.117 215.708 310.174 211.884L310.848 208.579H291.265L290.501 212.129C290.501 212.129 278.886 217.545 277.705 218.51C276.523 219.475 275.644 222.534 276.723 222.871Z" fill="#EBEBEB"/>
<path d="M276.725 222.871C277.798 223.213 308.344 222.74 309.491 221.986C309.937 221.706 310.125 217.249 310.199 211.861V211.69L290.491 211.776V212.112C290.491 212.112 278.883 217.523 277.707 218.487C276.531 219.452 275.652 222.534 276.725 222.871Z" fill="#FEC84B"/>
<path opacity="0.1" d="M288.85 212.198C290.87 211.787 293.353 212.061 294.928 213.482C294.985 213.533 294.928 213.619 294.843 213.602C292.896 213.008 290.89 212.625 288.861 212.46C288.844 212.461 288.827 212.459 288.811 212.453C288.794 212.447 288.779 212.438 288.767 212.426C288.754 212.414 288.744 212.4 288.736 212.385C288.729 212.369 288.725 212.352 288.724 212.335C288.723 212.318 288.726 212.3 288.732 212.284C288.738 212.268 288.747 212.253 288.759 212.24C288.77 212.228 288.784 212.217 288.8 212.21C288.816 212.203 288.833 212.199 288.85 212.198Z" fill="#1D2939"/>
<path opacity="0.1" d="M287.414 213.099C289.429 212.688 291.917 212.962 293.487 214.383C293.544 214.44 293.487 214.526 293.401 214.503C291.456 213.909 289.453 213.526 287.425 213.361C287.391 213.363 287.357 213.351 287.331 213.327C287.305 213.303 287.29 213.271 287.289 213.236C287.287 213.201 287.299 213.167 287.323 213.141C287.346 213.116 287.379 213.1 287.414 213.099Z" fill="#1D2939"/>
<path opacity="0.1" d="M285.972 214.008C287.993 213.597 290.475 213.871 292.045 215.286C292.108 215.343 292.045 215.429 291.959 215.412C290.013 214.821 288.01 214.438 285.984 214.27C285.966 214.271 285.949 214.268 285.933 214.262C285.917 214.256 285.902 214.247 285.889 214.236C285.876 214.224 285.866 214.21 285.859 214.194C285.851 214.179 285.847 214.162 285.847 214.145C285.846 214.127 285.849 214.11 285.854 214.094C285.86 214.078 285.869 214.063 285.881 214.05C285.893 214.037 285.907 214.027 285.922 214.02C285.938 214.013 285.955 214.008 285.972 214.008Z" fill="#1D2939"/>
<path d="M304.969 104.327C305.672 107.295 306.19 110.302 306.522 113.334C306.893 117.112 307.366 120.457 307.869 120.873C308.371 121.29 311.293 123.156 312.252 123.727C312.252 123.727 303.36 150.689 301.065 159.684C297.738 172.708 289.77 211.798 289.77 211.798H311.002C311.002 211.798 317.457 174.592 320.282 162.184C322.702 151.551 331.971 119.652 331.971 119.652C332.949 117.192 333.388 114.552 333.259 111.908C333.13 109.265 332.436 106.68 331.223 104.327C331.223 104.327 304.969 104.316 304.969 104.327Z" fill="#98A2B3"/>
<path d="M306.377 119.805C308.439 120.94 310.398 122.252 312.233 123.726C312.244 123.738 312.25 123.754 312.252 123.771C312.253 123.787 312.249 123.804 312.239 123.817C312.23 123.831 312.217 123.842 312.201 123.847C312.185 123.852 312.168 123.852 312.153 123.846C310.166 122.602 308.157 121.392 306.223 120.039C306.199 120.016 306.184 119.985 306.18 119.952C306.177 119.919 306.185 119.886 306.203 119.859C306.221 119.831 306.249 119.81 306.28 119.801C306.312 119.791 306.346 119.793 306.377 119.805Z" fill="#667085"/>
<path d="M307.999 105.138C307.999 105.064 308.148 105.07 308.136 105.138C307.767 107.512 307.517 109.902 307.388 112.301C307.314 113.408 307.257 119.601 309.226 119.452C309.557 119.452 309.797 119.144 309.894 118.67C309.983 118.042 309.994 117.406 309.928 116.775C309.928 115.474 309.928 114.179 310.031 112.877C310.183 110.474 310.58 108.093 311.218 105.772C311.218 105.755 311.225 105.739 311.237 105.727C311.248 105.715 311.264 105.709 311.281 105.709C311.298 105.709 311.314 105.715 311.325 105.727C311.337 105.739 311.344 105.755 311.344 105.772C310.774 109.068 310.453 112.403 310.385 115.748C310.385 117.363 310.802 119.857 309.118 119.84C307.434 119.823 306.932 115.685 306.898 114.572C306.855 111.393 307.225 108.222 307.999 105.138Z" fill="#667085"/>
<path d="M309.162 119.623C309.267 120.057 309.343 120.497 309.39 120.941C309.453 121.292 309.453 121.652 309.39 122.003C309.385 122.016 309.375 122.028 309.363 122.036C309.351 122.044 309.337 122.048 309.322 122.048C309.307 122.048 309.293 122.044 309.281 122.036C309.269 122.028 309.259 122.016 309.253 122.003C309.101 121.663 309.004 121.3 308.968 120.93C308.883 120.519 308.791 120.113 308.717 119.697C308.707 119.638 308.721 119.577 308.756 119.529C308.791 119.48 308.843 119.447 308.902 119.437C308.962 119.427 309.022 119.441 309.071 119.476C309.119 119.511 309.152 119.564 309.162 119.623Z" fill="#667085"/>
<path d="M328.946 119.514C327.118 119.412 325.31 119.071 323.57 118.498C321.595 117.867 319.804 116.762 318.353 115.279C317.533 114.464 316.855 113.517 316.35 112.477C316.35 112.437 316.27 112.477 316.282 112.511C316.592 113.518 317.07 114.466 317.697 115.313C318.346 116.153 319.115 116.891 319.98 117.505C321.692 118.76 323.707 119.538 325.819 119.759C326.86 119.921 327.922 119.906 328.958 119.714C329.123 119.691 329.078 119.525 328.946 119.514Z" fill="#667085"/>
<path d="M313.495 195.989C313.546 195.498 313.615 195.007 313.683 194.516C313.814 193.58 313.974 192.638 314.123 191.702C314.408 189.813 314.733 187.93 315.07 186.052C315.732 182.302 316.503 178.564 317.313 174.843C317.775 172.742 318.306 170.665 318.871 168.564C318.905 168.416 319.111 168.49 319.088 168.627C318.746 170.534 318.415 172.434 318.026 174.335C317.638 176.235 317.25 178.107 316.885 179.996C316.143 183.729 315.452 187.479 314.71 191.212C314.505 192.267 314.311 193.323 314.105 194.379C314.003 194.904 313.9 195.435 313.786 195.954C313.672 196.474 313.512 196.993 313.426 197.518C313.426 197.57 313.341 197.547 313.346 197.518C313.426 197.01 313.432 196.519 313.495 195.989Z" fill="#667085"/>
<path d="M298.853 167.776C299.561 164.254 300.514 160.778 301.473 157.314C303.402 150.351 305.673 143.485 307.939 136.619C308.594 134.644 309.248 132.667 309.903 130.689C310.228 129.701 311.826 124.365 312.026 123.84C312.029 123.831 312.035 123.824 312.042 123.818C312.05 123.813 312.059 123.81 312.069 123.81C312.078 123.81 312.087 123.813 312.095 123.818C312.102 123.824 312.108 123.831 312.111 123.84C311.649 125.655 311.021 128.303 310.49 130.118C309.96 131.933 309.395 133.662 308.841 135.426C307.757 138.902 306.655 142.378 305.605 145.859C303.522 152.748 301.456 159.637 299.766 166.634C299.292 168.598 298.819 170.555 298.391 172.524C297.963 174.493 297.586 176.468 297.175 178.437C297.175 178.494 297.072 178.477 297.078 178.437C297.432 174.864 298.134 171.314 298.853 167.776Z" fill="#667085"/>
<path d="M312.054 186.207C313.224 179.489 314.622 172.805 316.175 166.162C317.727 159.519 319.468 152.852 321.38 146.272C323.292 139.691 325.409 133.145 327.658 126.695C328.803 123.652 329.766 120.544 330.54 117.386C331.242 114.247 331.596 110.851 330.866 107.684C330.687 106.88 330.445 106.092 330.141 105.326C330.141 105.275 330.198 105.229 330.221 105.281C332.772 111.234 331.117 117.74 329.17 123.607C328.109 126.821 326.973 130.011 325.917 133.23C324.861 136.449 323.811 139.851 322.818 143.184C320.86 149.787 319.04 156.431 317.413 163.12C315.787 169.809 314.331 176.544 313.053 183.313C311.774 190.082 310.696 196.925 309.6 203.745C309.457 204.636 309.349 205.526 309.229 206.417C309.229 206.468 309.149 206.468 309.155 206.417C309.999 199.653 310.89 192.918 312.054 186.207Z" fill="#667085"/>
<path d="M312.49 76.1384C309.99 85.2703 302.787 96.2856 299.363 97.8266C296.383 99.1507 282.56 94.0369 277.343 90.7152C275.859 89.7677 281.995 81.2237 283.781 81.8173C289.62 83.7635 295.972 86.6401 296.463 86.4745C297.456 86.1378 303.655 78.5355 308.169 73.4216C313.232 67.6743 313.483 72.5027 312.49 76.1384Z" fill="#C95F50"/>
<path d="M267.478 82.9704C266.302 82.4796 257.256 82.1942 257.256 80.2309C257.256 78.2675 268.773 78.8154 268.773 78.8154L267.478 82.9704Z" fill="#FFC8C1"/>
<path d="M284.82 83.1986C283.239 81.2352 281.847 79.1178 280.471 78.7296C279.524 78.4614 269.279 78.9009 267.681 78.8038C266.083 78.7068 260.37 78.8552 260.261 80.2592C260.073 82.2397 266.83 82.2226 267.55 83.2385C270.044 86.7372 279.535 91.9138 279.535 91.9138L284.82 83.1986Z" fill="#FFC8C1"/>
<path d="M260.095 80.2873C260.199 79.9228 260.432 79.6086 260.751 79.4027C261.499 78.9934 262.341 78.7868 263.194 78.8034C264.443 78.6912 265.699 78.6816 266.949 78.7749C266.949 78.7749 266.949 78.8148 266.949 78.8205C266.007 78.8205 265.077 78.8205 264.141 78.9233C263.283 78.9553 262.43 79.0855 261.601 79.3114C261.229 79.4072 260.891 79.6048 260.625 79.8821C260.534 79.9864 260.47 80.1126 260.441 80.2486C260.412 80.3845 260.419 80.5256 260.46 80.6583C260.728 81.5201 262.435 81.7998 263.222 81.9539C264.25 82.1822 265.317 82.382 266.35 82.5931C266.396 82.5931 266.35 82.673 266.35 82.6616C265.277 82.4504 264.147 82.3706 263.068 82.1765C262.168 82.0885 261.304 81.7744 260.557 81.2633C260.394 81.162 260.264 81.0162 260.182 80.8432C260.101 80.6702 260.07 80.4772 260.095 80.2873Z" fill="#F7A9A0"/>
<path d="M285.208 81.9884L277.103 93.8541C277.103 93.8541 289.659 100.132 294.465 100.035C299.031 99.9268 300.692 99.2534 302.136 97.8893C303.032 97.0446 308.117 89.8589 312.267 77.9133C315.748 67.9024 310.594 69.3521 305.988 74.9226C303.705 77.685 296.377 85.9208 296.012 85.8923C295.647 85.8637 285.208 81.9884 285.208 81.9884Z" fill="#3B4A5F"/>
<path d="M333.218 110.582C333.144 110.662 301.045 110.433 300.754 110.102C300.354 109.634 307.957 74.9332 311.296 70.6698C312.009 69.7566 314.338 69.5283 316.312 69.7908C316.827 69.8548 317.335 69.9636 317.831 70.1162H317.882C318.283 70.2414 318.659 70.4345 318.995 70.6869C324.445 75.133 328.914 90.5202 329.947 95.1375C331.66 102.751 333.486 110.279 333.218 110.582Z" fill="#475467"/>
<path d="M312.641 75.0643C314.171 75.2412 317.07 73.1124 317.881 70.8579C317.932 70.6981 317.476 69.2313 317.008 67.4335C316.728 66.3319 316.437 65.1048 316.26 63.9633C316.226 63.7293 309.377 66.8171 309.377 66.8171C310.012 68.1778 310.478 69.6117 310.764 71.0862C310.777 71.2457 310.777 71.4061 310.764 71.5656V71.6455C310.786 72.5644 310.998 74.8817 312.641 75.0643Z" fill="#FFC8C1"/>
<path d="M310.785 71.578C310.783 71.6046 310.783 71.6313 310.785 71.6579C311.032 71.649 311.278 71.6223 311.522 71.578C315.717 70.8189 315.996 65.3683 316.002 63.9985C314.758 64.3809 309.37 66.8523 309.37 66.8523C310.005 68.2152 310.471 69.6508 310.757 71.1271C310.776 71.2766 310.786 71.4272 310.785 71.578Z" fill="#F7A9A0"/>
<path d="M316.192 54.8608C317.294 57.315 316.871 64.8488 315.268 66.7151C312.939 69.4262 308.664 70.1967 306.244 67.2859C303.898 64.4721 304.618 54.661 306.455 52.9146C309.161 50.3462 314.571 51.2423 316.192 54.8608Z" fill="#FFC8C1"/>
<path d="M316.809 61.3734C316.809 61.3734 318.629 56.8531 318.007 54.5245C317.728 53.4686 316.147 52.9835 316.147 52.9835C316.189 52.5295 316.105 52.0725 315.904 51.6634C315.702 51.2544 315.391 50.9092 315.005 50.6663C313.538 49.6732 310.502 50.4437 310.502 50.4437C310.502 50.4437 308.036 47.8868 305.399 49.4905C302.763 51.0943 305.125 53.9937 305.125 53.9937C305.125 53.9937 304.326 55.6317 307.049 56.368C309.771 57.1043 314.548 55.1637 314.548 55.1637C314.599 56.9353 314.912 58.6896 315.479 60.3689C315.588 60.6414 315.77 60.8789 316.004 61.0559C316.238 61.2329 316.517 61.3427 316.809 61.3734Z" fill="#1D2939"/>
<path d="M310.003 50.5521C310.593 50.1947 311.249 49.9598 311.932 49.8615C312.539 49.7617 313.158 49.7617 313.764 49.8615C314.306 49.9254 314.82 50.1348 315.252 50.4675C315.684 50.8001 316.018 51.2435 316.219 51.7507C316.305 52.0176 316.337 52.299 316.312 52.5785C316.288 52.8579 316.207 53.1295 316.076 53.3773C316.076 53.3773 316.036 53.3773 316.047 53.3773C316.567 52.4584 316.047 51.2598 315.237 50.6948C314.293 50.112 313.169 49.8929 312.075 50.0784C311.373 50.185 310.687 50.3767 310.032 50.6491C310.025 50.651 310.019 50.6516 310.012 50.6509C310.006 50.6502 309.999 50.6482 309.993 50.645C309.987 50.6418 309.982 50.6376 309.978 50.6324C309.974 50.6272 309.971 50.6213 309.969 50.6149C309.967 50.6085 309.967 50.6019 309.967 50.5953C309.968 50.5887 309.97 50.5823 309.973 50.5764C309.976 50.5706 309.981 50.5654 309.986 50.5613C309.991 50.5571 309.997 50.554 310.003 50.5521Z" fill="#1D2939"/>
<path d="M303.596 51.1678C303.665 50.772 303.83 50.3993 304.078 50.0835C304.326 49.7676 304.649 49.5185 305.018 49.3585C305.85 48.945 306.797 48.8243 307.706 49.0161C308.62 49.2112 309.465 49.6466 310.154 50.2774C310.154 50.3174 310.154 50.2774 310.154 50.2774C309.536 49.7231 308.78 49.3457 307.965 49.185C307.151 49.0243 306.308 49.0862 305.526 49.3642C305.161 49.4622 304.827 49.6489 304.552 49.9076C304.278 50.1664 304.072 50.4891 303.952 50.847C303.833 51.2049 303.804 51.5867 303.869 51.9584C303.933 52.3301 304.089 52.6801 304.321 52.977C304.868 53.6734 305.6 54.2016 306.433 54.5009C306.433 54.5009 306.433 54.5409 306.433 54.5295C305.653 54.2935 304.945 53.8657 304.373 53.2852C304.1 53.0076 303.89 52.6752 303.757 52.3101C303.623 51.945 303.568 51.5556 303.596 51.1678Z" fill="#1D2939"/>
<path d="M315.093 61.1796C315.093 61.1796 316.509 58.617 317.656 59.1021C318.803 59.5873 317.913 63.1715 316.691 63.7822C316.54 63.8704 316.372 63.9271 316.198 63.949C316.023 63.9709 315.847 63.9574 315.678 63.9095C315.509 63.8616 315.351 63.7801 315.215 63.67C315.078 63.5599 314.965 63.4233 314.882 63.2686L315.093 61.1796Z" fill="#FFC8C1"/>
<path d="M317.375 60.1113C317.375 60.1113 317.375 60.1113 317.375 60.1456C316.987 60.3913 316.656 60.7161 316.402 61.0986C316.148 61.4812 315.978 61.913 315.902 62.3658C315.945 62.2716 316.007 62.1877 316.085 62.1199C316.163 62.052 316.255 62.0017 316.354 61.9725C316.453 61.9432 316.558 61.9357 316.66 61.9504C316.762 61.9651 316.86 62.0016 316.947 62.0576C316.947 62.0576 316.947 62.1146 316.947 62.1089C316.784 62.0754 316.615 62.0931 316.463 62.1595C316.311 62.2259 316.183 62.3379 316.097 62.4799C315.959 62.7199 315.845 62.9722 315.754 63.2333C315.72 63.3189 315.571 63.2904 315.594 63.1933C315.452 62.0519 316.165 60.3682 317.375 60.1113Z" fill="#F7A9A0"/>
<path d="M322.272 73.4833C330.353 82.5581 336.432 95.337 336.375 98.3505C336.295 101.661 332.083 113.321 328.07 118.8C327.551 119.502 324.423 119.206 321.792 117.75C319.001 116.215 316.713 113.475 317.26 112.659C319.321 109.594 324.201 97.7227 324.155 95.8678C324.115 94.1556 320.114 83.6425 318.59 77.5641C317.101 71.714 318.51 69.2426 322.272 73.4833Z" fill="#FFC8C1"/>
<path d="M332.935 117.894L317.885 110.543C317.885 110.543 323.803 97.3359 323.803 95.909C323.803 94.4822 319.911 83.3184 318.444 78.1589C316.977 72.9994 317.542 67.2006 323.969 75.0027C330.395 82.8048 336.012 94.408 336.651 97.49C337.29 100.572 332.935 117.894 332.935 117.894Z" fill="#3B4A5F"/>
<path d="M98.602 205.736C121.587 205.736 140.221 187.102 140.221 164.117C140.221 141.132 121.587 122.499 98.602 122.499C75.6167 122.499 56.9834 141.132 56.9834 164.117C56.9834 187.102 75.6167 205.736 98.602 205.736Z" fill="#F2F4F7"/>
<path d="M98.5847 209.877C89.5374 209.877 80.6933 207.194 73.1708 202.168C65.6482 197.141 59.7851 189.997 56.3229 181.638C52.8606 173.28 51.9548 164.082 53.7198 155.209C55.4848 146.335 59.8415 138.185 66.2389 131.787C72.6363 125.39 80.7871 121.033 89.6605 119.268C98.534 117.503 107.732 118.409 116.09 121.871C124.449 125.333 131.593 131.197 136.619 138.719C141.646 146.242 144.329 155.086 144.329 164.133C144.311 176.26 139.486 187.885 130.911 196.459C122.336 205.034 110.711 209.859 98.5847 209.877ZM98.5847 119.221C89.7019 119.221 81.0186 121.855 73.6328 126.79C66.2471 131.725 60.4906 138.739 57.0913 146.946C53.692 155.153 52.8026 164.183 54.5355 172.895C56.2685 181.607 60.546 189.61 66.827 195.891C73.1081 202.172 81.1107 206.449 89.8228 208.182C98.5349 209.915 107.565 209.026 115.772 205.626C123.978 202.227 130.993 196.471 135.928 189.085C140.863 181.699 143.497 173.016 143.497 164.133C143.488 152.222 138.754 140.801 130.334 132.376C121.914 123.952 110.496 119.211 98.5847 119.196V119.221Z" fill="#7891FF"/>
<path d="M94.2656 158.826L113.744 139.348H123.251V148.638H117.171V154.934H111.083V161.238H104.778V167.434L103.764 168.449L94.2656 158.826Z" fill="#FEC84B"/>
<path opacity="0.3" d="M123.237 139.355V148.637H117.157V154.942H111.077V161.246H104.773V167.434L103.792 168.415L98.9844 163.608L123.237 139.355Z" fill="white"/>
<path d="M78.4477 184.368C80.6056 186.525 83.3547 187.994 86.3473 188.588C89.3398 189.183 92.4415 188.877 95.2602 187.709C98.0789 186.541 100.488 184.564 102.183 182.027C103.878 179.49 104.783 176.507 104.783 173.456C104.783 170.405 103.878 167.422 102.183 164.885C100.488 162.348 98.0789 160.371 95.2602 159.203C92.4415 158.035 89.3398 157.729 86.3473 158.324C83.3547 158.918 80.6056 160.387 78.4477 162.544C75.5548 165.439 73.9297 169.364 73.9297 173.456C73.9297 177.548 75.5548 181.473 78.4477 184.368ZM87.4384 175.377C88.0024 175.941 88.3865 176.66 88.542 177.443C88.6976 178.225 88.6176 179.036 88.3123 179.773C88.0069 180.51 87.4899 181.14 86.8266 181.583C86.1632 182.026 85.3834 182.263 84.5857 182.263C83.7879 182.263 83.0081 182.026 82.3448 181.583C81.6815 181.14 81.1644 180.51 80.8591 179.773C80.5537 179.036 80.4738 178.225 80.6293 177.443C80.7849 176.66 81.1689 175.941 81.7329 175.377C82.1075 175.003 82.5522 174.705 83.0417 174.502C83.5312 174.3 84.0558 174.195 84.5857 174.195C85.1155 174.195 85.6402 174.3 86.1296 174.502C86.6191 174.705 87.0638 175.003 87.4384 175.377Z" fill="#FEC84B"/>
</svg>
