<svg width="217" height="171" viewBox="0 0 217 171" fill="none" xmlns="http://www.w3.org/2000/svg">
<circle opacity="0.7" cx="112.018" cy="85.1497" r="85.1497" fill="#F2F4F7"/>
<path d="M182.698 112.527H43.0621C42.1979 112.525 41.3693 111.906 40.7582 110.806C40.147 109.706 39.8032 108.214 39.8022 106.657V54.5884C39.8032 53.0323 40.147 51.5403 40.7582 50.4399C41.3693 49.3395 42.1979 48.7206 43.0621 48.7188H182.698C183.562 48.7206 184.391 49.3395 185.002 50.4399C185.613 51.5403 185.957 53.0323 185.958 54.5884V106.657C185.957 108.214 185.613 109.706 185.002 110.806C184.391 111.906 183.562 112.525 182.698 112.527Z" fill="#D0D5DD"/>
<path d="M170.643 108.214H46.8354C45.9996 108.213 45.1982 107.597 44.6071 106.502C44.0161 105.406 43.6836 103.922 43.6826 102.373V58.439C43.6836 56.8903 44.0161 55.4056 44.6071 54.3105C45.1982 53.2155 45.9996 52.5995 46.8354 52.5977H177.632C178.467 52.5995 179.269 53.2155 179.86 54.3105C180.451 55.4056 180.783 56.8903 180.784 58.439V89.4255C180.781 94.4069 179.712 99.1827 177.811 102.705C175.91 106.227 173.332 108.209 170.643 108.214Z" fill="white"/>
<path d="M69.0155 70.9295C70.1486 70.9295 71.0672 70.0109 71.0672 68.8778C71.0672 67.7447 70.1486 66.8262 69.0155 66.8262C67.8824 66.8262 66.9639 67.7447 66.9639 68.8778C66.9639 70.0109 67.8824 70.9295 69.0155 70.9295Z" fill="#EAECF0"/>
<path d="M69.0155 78.6814C70.1486 78.6814 71.0672 77.7629 71.0672 76.6298C71.0672 75.4967 70.1486 74.5781 69.0155 74.5781C67.8824 74.5781 66.9639 75.4967 66.9639 76.6298C66.9639 77.7629 67.8824 78.6814 69.0155 78.6814Z" fill="#EAECF0"/>
<path d="M69.0155 86.4314C70.1486 86.4314 71.0672 85.5129 71.0672 84.3798C71.0672 83.2467 70.1486 82.3281 69.0155 82.3281C67.8824 82.3281 66.9639 83.2467 66.9639 84.3798C66.9639 85.5129 67.8824 86.4314 69.0155 86.4314Z" fill="#EAECF0"/>
<path d="M69.0155 94.1814C70.1486 94.1814 71.0672 93.2629 71.0672 92.1298C71.0672 90.9967 70.1486 90.0781 69.0155 90.0781C67.8824 90.0781 66.9639 90.9967 66.9639 92.1298C66.9639 93.2629 67.8824 94.1814 69.0155 94.1814Z" fill="#EAECF0"/>
<path d="M146.75 66.0887H79.2739C79.2134 66.0887 79.1554 66.0647 79.1127 66.022C79.0699 65.9792 79.0459 65.9212 79.0459 65.8608C79.0459 65.8003 79.0699 65.7423 79.1127 65.6996C79.1554 65.6568 79.2134 65.6328 79.2739 65.6328H146.75C146.811 65.6328 146.869 65.6568 146.912 65.6996C146.954 65.7423 146.978 65.8003 146.978 65.8608C146.978 65.9212 146.954 65.9792 146.912 66.022C146.869 66.0647 146.811 66.0887 146.75 66.0887Z" fill="#EAECF0"/>
<path d="M146.75 73.8387H79.2739C79.2134 73.8387 79.1554 73.8147 79.1127 73.772C79.0699 73.7292 79.0459 73.6712 79.0459 73.6108C79.0459 73.5503 79.0699 73.4923 79.1127 73.4496C79.1554 73.4068 79.2134 73.3828 79.2739 73.3828H146.75C146.811 73.3828 146.869 73.4068 146.912 73.4496C146.954 73.4923 146.978 73.5503 146.978 73.6108C146.978 73.6712 146.954 73.7292 146.912 73.772C146.869 73.8147 146.811 73.8387 146.75 73.8387Z" fill="#EAECF0"/>
<path d="M146.75 81.5887H79.2739C79.2134 81.5887 79.1554 81.5647 79.1127 81.522C79.0699 81.4792 79.0459 81.4212 79.0459 81.3608C79.0459 81.3003 79.0699 81.2423 79.1127 81.1996C79.1554 81.1568 79.2134 81.1328 79.2739 81.1328H146.75C146.811 81.1328 146.869 81.1568 146.912 81.1996C146.954 81.2423 146.978 81.3003 146.978 81.3608C146.978 81.4212 146.954 81.4792 146.912 81.522C146.869 81.5647 146.811 81.5887 146.75 81.5887Z" fill="#EAECF0"/>
<path d="M146.75 89.3407H79.2739C79.2134 89.3407 79.1554 89.3167 79.1127 89.2739C79.0699 89.2312 79.0459 89.1732 79.0459 89.1127C79.0459 89.0523 79.0699 88.9943 79.1127 88.9515C79.1554 88.9088 79.2134 88.8848 79.2739 88.8848H146.75C146.811 88.8848 146.869 88.9088 146.912 88.9515C146.954 88.9943 146.978 89.0523 146.978 89.1127C146.978 89.1732 146.954 89.2312 146.912 89.2739C146.869 89.3167 146.811 89.3407 146.75 89.3407Z" fill="#EAECF0"/>
<path d="M92.0398 97.0908H85.4289C85.1267 97.0905 84.837 96.9703 84.6233 96.7566C84.4096 96.5429 84.2894 96.2532 84.2891 95.951V89.7961C84.2894 89.4939 84.4096 89.2042 84.6233 88.9905C84.837 88.7768 85.1267 88.6566 85.4289 88.6562H92.0398C92.3419 88.6566 92.6316 88.7768 92.8453 88.9905C93.059 89.2042 93.1792 89.4939 93.1796 89.7961V95.951C93.1792 96.2532 93.059 96.5429 92.8453 96.7566C92.6316 96.9703 92.3419 97.0905 92.0398 97.0908Z" fill="#7891FF"/>
<path d="M106.857 97.0915H100.246C99.9441 97.0912 99.6543 96.971 99.4407 96.7573C99.227 96.5436 99.1068 96.2539 99.1064 95.9517V82.0461C99.1068 81.7439 99.227 81.4542 99.4407 81.2405C99.6543 81.0268 99.9441 80.9066 100.246 80.9062H106.857C107.159 80.9066 107.449 81.0268 107.663 81.2405C107.876 81.4542 107.997 81.7439 107.997 82.0461V95.9517C107.997 96.2539 107.876 96.5436 107.663 96.7573C107.449 96.971 107.159 97.0912 106.857 97.0915Z" fill="#7891FF"/>
<path d="M121.903 97.0902H115.292C114.989 97.0899 114.7 96.9697 114.486 96.756C114.272 96.5423 114.152 96.2526 114.152 95.9504V74.2941C114.152 73.9919 114.272 73.7022 114.486 73.4885C114.7 73.2748 114.989 73.1546 115.292 73.1543H121.903C122.205 73.1546 122.494 73.2748 122.708 73.4885C122.922 73.7022 123.042 73.9919 123.042 74.2941V95.9504C123.042 96.2526 122.922 96.5423 122.708 96.756C122.494 96.9697 122.205 97.0899 121.903 97.0902Z" fill="#7891FF"/>
<path d="M137.404 97.0915H130.793C130.491 97.0911 130.201 96.9709 129.988 96.7573C129.774 96.5436 129.654 96.2539 129.653 95.9517V66.7726C129.654 66.4704 129.774 66.1807 129.988 65.967C130.201 65.7534 130.491 65.6332 130.793 65.6328H137.404C137.706 65.6332 137.996 65.7534 138.21 65.967C138.423 66.1807 138.543 66.4704 138.544 66.7726V95.9517C138.543 96.2539 138.423 96.5436 138.21 96.7573C137.996 96.9709 137.706 97.0911 137.404 97.0915Z" fill="#7891FF"/>
<path d="M146.75 97.0907H79.2739C79.2134 97.0907 79.1554 97.0667 79.1127 97.0239C79.0699 96.9812 79.0459 96.9232 79.0459 96.8627C79.0459 96.8023 79.0699 96.7443 79.1127 96.7015C79.1554 96.6588 79.2134 96.6348 79.2739 96.6348H146.75C146.811 96.6348 146.869 96.6588 146.912 96.7015C146.954 96.7443 146.978 96.8023 146.978 96.8627C146.978 96.9232 146.954 96.9812 146.912 97.0239C146.869 97.0667 146.811 97.0907 146.75 97.0907Z" fill="#475467"/>
<path d="M191 23H125C122.791 23 121 24.7909 121 27V58" stroke="#7891FF" stroke-width="0.75" stroke-dasharray="2 4"/>
<path d="M153.375 103C153.375 102.793 153.207 102.625 153 102.625C152.793 102.625 152.625 102.793 152.625 103H153.375ZM152.625 104.056C152.625 104.263 152.793 104.431 153 104.431C153.207 104.431 153.375 104.263 153.375 104.056H152.625ZM153.375 108.278C153.375 108.071 153.207 107.903 153 107.903C152.793 107.903 152.625 108.071 152.625 108.278H153.375ZM152.625 110.389C152.625 110.596 152.793 110.764 153 110.764C153.207 110.764 153.375 110.596 153.375 110.389H152.625ZM153.375 114.611C153.375 114.404 153.207 114.236 153 114.236C152.793 114.236 152.625 114.404 152.625 114.611H153.375ZM152.625 116.722C152.625 116.929 152.793 117.097 153 117.097C153.207 117.097 153.375 116.929 153.375 116.722H152.625ZM153.375 120.944C153.375 120.737 153.207 120.569 153 120.569C152.793 120.569 152.625 120.737 152.625 120.944H153.375ZM152.773 123.132C152.827 123.333 153.032 123.451 153.232 123.398C153.432 123.344 153.551 123.139 153.498 122.939L152.773 123.132ZM156.061 125.502C155.861 125.449 155.656 125.568 155.602 125.768C155.549 125.968 155.667 126.173 155.868 126.227L156.061 125.502ZM157.944 126.375C158.152 126.375 158.319 126.207 158.319 126C158.319 125.793 158.152 125.625 157.944 125.625V126.375ZM161.722 125.625C161.515 125.625 161.347 125.793 161.347 126C161.347 126.207 161.515 126.375 161.722 126.375V125.625ZM163.611 126.375C163.818 126.375 163.986 126.207 163.986 126C163.986 125.793 163.818 125.625 163.611 125.625V126.375ZM167.389 125.625C167.182 125.625 167.014 125.793 167.014 126C167.014 126.207 167.182 126.375 167.389 126.375V125.625ZM169.278 126.375C169.485 126.375 169.653 126.207 169.653 126C169.653 125.793 169.485 125.625 169.278 125.625V126.375ZM173.056 125.625C172.848 125.625 172.681 125.793 172.681 126C172.681 126.207 172.848 126.375 173.056 126.375V125.625ZM174.944 126.375C175.152 126.375 175.319 126.207 175.319 126C175.319 125.793 175.152 125.625 174.944 125.625V126.375ZM178.722 125.625C178.515 125.625 178.347 125.793 178.347 126C178.347 126.207 178.515 126.375 178.722 126.375V125.625ZM180.611 126.375C180.818 126.375 180.986 126.207 180.986 126C180.986 125.793 180.818 125.625 180.611 125.625V126.375ZM184.389 125.625C184.182 125.625 184.014 125.793 184.014 126C184.014 126.207 184.182 126.375 184.389 126.375V125.625ZM186.278 126.375C186.485 126.375 186.653 126.207 186.653 126C186.653 125.793 186.485 125.625 186.278 125.625V126.375ZM190.056 125.625C189.848 125.625 189.681 125.793 189.681 126C189.681 126.207 189.848 126.375 190.056 126.375V125.625ZM152.625 103V104.056H153.375V103H152.625ZM152.625 108.278V110.389H153.375V108.278H152.625ZM152.625 114.611V116.722H153.375V114.611H152.625ZM152.625 120.944V122H153.375V120.944H152.625ZM152.625 122C152.625 122.391 152.676 122.771 152.773 123.132L153.498 122.939C153.418 122.64 153.375 122.325 153.375 122H152.625ZM155.868 126.227C156.229 126.324 156.609 126.375 157 126.375V125.625C156.675 125.625 156.36 125.582 156.061 125.502L155.868 126.227ZM157 126.375H157.944V125.625H157V126.375ZM161.722 126.375H163.611V125.625H161.722V126.375ZM167.389 126.375H169.278V125.625H167.389V126.375ZM173.056 126.375H174.944V125.625H173.056V126.375ZM178.722 126.375H180.611V125.625H178.722V126.375ZM184.389 126.375H186.278V125.625H184.389V126.375ZM190.056 126.375H191V125.625H190.056V126.375Z" fill="#7891FF"/>
<path d="M191 23H125C122.791 23 121 24.7909 121 27V58" stroke="#7891FF" stroke-width="0.75" stroke-dasharray="2 4"/>
<path d="M17 137H57C59.2091 137 61 135.209 61 133V102" stroke="#7891FF" stroke-width="0.75" stroke-dasharray="2 4"/>
<path d="M120.521 62.8514C123.366 62.8514 125.672 60.5456 125.672 57.7011C125.672 54.8567 123.366 52.5508 120.521 52.5508C117.677 52.5508 115.371 54.8567 115.371 57.7011C115.371 60.5456 117.677 62.8514 120.521 62.8514Z" fill="#C9D7FF"/>
<path d="M209.24 16.5391H186.389C184.903 16.5391 183.477 17.1296 182.426 18.1807C181.375 19.2318 180.785 20.6574 180.785 22.1439C180.785 23.6303 181.375 25.0559 182.426 26.107C183.477 27.1581 184.903 27.7486 186.389 27.7486H209.24C210.726 27.7486 212.152 27.1581 213.203 26.107C214.254 25.0559 214.845 23.6303 214.845 22.1439C214.845 20.6574 214.254 19.2318 213.203 18.1807C212.152 17.1296 210.726 16.5391 209.24 16.5391Z" fill="#2741FF"/>
<circle cx="191.132" cy="22.1445" r="1.72455" fill="white"/>
<circle cx="198.03" cy="22.1445" r="1.72455" fill="white"/>
<circle cx="204.928" cy="22.1445" r="1.72455" fill="white"/>
<path d="M152.425 107.258C155.27 107.258 157.576 104.952 157.576 102.107C157.576 99.2629 155.27 96.957 152.425 96.957C149.581 96.957 147.275 99.2629 147.275 102.107C147.275 104.952 149.581 107.258 152.425 107.258Z" fill="#C9D7FF"/>
<path d="M217 125.894C216.998 124.408 216.407 122.983 215.357 121.932C214.306 120.881 212.881 120.29 211.395 120.289H188.545C187.058 120.289 185.633 120.88 184.582 121.931C183.53 122.982 182.94 124.407 182.94 125.894C182.94 127.38 183.53 128.806 184.582 129.857C185.633 130.908 187.058 131.499 188.545 131.499H211.395C212.881 131.497 214.306 130.906 215.357 129.855C216.407 128.805 216.998 127.38 217 125.894Z" fill="#2741FF"/>
<circle cx="193.196" cy="125.893" r="1.72455" fill="white"/>
<circle cx="200.094" cy="125.893" r="1.72455" fill="white"/>
<circle cx="206.992" cy="125.893" r="1.72455" fill="white"/>
<path d="M5.60479 142.21H28.4551C29.9416 142.21 31.3672 141.619 32.4183 140.568C33.4694 139.517 34.0599 138.091 34.0599 136.605C34.0599 135.118 33.4694 133.693 32.4183 132.642C31.3672 131.591 29.9416 131 28.4551 131H5.60479C4.11831 131 2.69271 131.591 1.64161 132.642C0.590505 133.693 0 135.118 0 136.605C0 138.091 0.590505 139.517 1.64161 140.568C2.69271 141.619 4.11831 142.21 5.60479 142.21Z" fill="#2741FF"/>
<circle cx="10.3471" cy="136.605" r="1.72455" fill="white"/>
<circle cx="17.2455" cy="136.605" r="1.72455" fill="white"/>
<circle cx="24.1435" cy="136.605" r="1.72455" fill="white"/>
<path d="M61.0244 106.971C63.8688 106.971 66.1747 104.665 66.1747 101.82C66.1747 98.9758 63.8688 96.6699 61.0244 96.6699C58.1799 96.6699 55.874 98.9758 55.874 101.82C55.874 104.665 58.1799 106.971 61.0244 106.971Z" fill="#C9D7FF"/>
</svg>
