<svg width="116" height="116" viewBox="0 0 116 116" fill="none" xmlns="http://www.w3.org/2000/svg">
<circle cx="58" cy="58" r="58" fill="#EAECF0"/>
<path opacity="0.5" d="M67.5752 40.0676H49.08C48.6585 40.0681 48.2545 40.2358 47.9565 40.5338C47.6584 40.8318 47.4908 41.2359 47.4903 41.6573V82.763L47.2783 82.8277L42.7411 84.2171C42.5261 84.2827 42.2939 84.2603 42.0953 84.1548C41.8968 84.0492 41.7483 83.8693 41.6824 83.6544L28.1864 39.5705C28.1207 39.3555 28.1431 39.1232 28.2486 38.9246C28.3542 38.7261 28.5342 38.5776 28.7492 38.5118L35.7409 36.3709L56.0103 30.1666L63.002 28.0257C63.1084 27.993 63.2202 27.9816 63.331 27.9921C63.4419 28.0026 63.5495 28.0349 63.6479 28.087C63.7462 28.1392 63.8333 28.2103 63.9042 28.2961C63.975 28.382 64.0282 28.481 64.0608 28.5875L67.5105 39.8556L67.5752 40.0676Z" fill="white"/>
<path d="M71.85 39.7823L71.85 39.7821L67.6923 26.2014C67.6135 25.9437 67.4847 25.7041 67.3133 25.4962C67.1419 25.2883 66.9312 25.1162 66.6932 24.9898C66.4552 24.8634 66.1947 24.7851 65.9265 24.7594C65.6582 24.7337 65.3876 24.761 65.13 24.84C65.13 24.84 65.1299 24.84 65.1299 24.84L55.3 27.8489L55.3 27.8489L35.0317 34.0542L35.0317 34.0542L25.2018 37.0641L25.2016 37.0642C24.6816 37.2238 24.2463 37.5833 23.991 38.0636C23.7358 38.5439 23.6816 39.1059 23.8403 39.6261L23.8404 39.6264L38.0507 86.0397L38.0507 86.0399C38.1796 86.4598 38.4397 86.8274 38.7929 87.0887C39.146 87.3499 39.5735 87.4911 40.0128 87.4915H40.0129C40.2164 87.4916 40.4188 87.4611 40.6133 87.401C40.6134 87.401 40.6135 87.4009 40.6136 87.4009L47.3514 85.3387L47.3522 85.3384L47.5642 85.2727L47.7402 85.2181V85.0339V84.8124V84.4748L47.4172 84.5733L47.2053 84.6379L47.205 84.638L40.4043 86.7205C40.0646 86.8241 39.6976 86.7886 39.384 86.622C39.0703 86.4554 38.8356 86.1712 38.7312 85.8317C38.7311 85.8317 38.7311 85.8317 38.7311 85.8316L24.522 39.4175L24.5219 39.4172C24.4702 39.2491 24.4522 39.0724 24.4689 38.8972C24.4856 38.7221 24.5367 38.552 24.6192 38.3967C24.7017 38.2413 24.8141 38.1038 24.9499 37.9919C25.0856 37.88 25.2421 37.796 25.4104 37.7447L25.4107 37.7446L35.2406 34.7347L35.2406 34.7347L55.5089 28.5304L55.509 28.5304L65.3387 25.5206C65.4665 25.4816 65.5993 25.4617 65.7329 25.4615C66.0193 25.4622 66.2979 25.5546 66.528 25.7251C66.7582 25.8956 66.9277 26.1354 67.0118 26.4093L71.1504 39.9284L71.1506 39.9293L71.2164 40.1413L71.2709 40.3172H71.4552H71.6756H72.0133L71.9147 39.9943L71.85 39.7823Z" fill="#D0D5DD" stroke="#D0D5DD" stroke-width="0.5"/>
<path d="M37.0022 38.5479C36.7979 38.5477 36.5991 38.4821 36.4348 38.3607C36.2706 38.2392 36.1496 38.0683 36.0895 37.8731L34.7244 33.4142C34.6877 33.2944 34.675 33.1686 34.687 33.0439C34.6989 32.9192 34.7353 32.7981 34.7941 32.6874C34.8529 32.5768 34.9328 32.4789 35.0295 32.3992C35.1261 32.3194 35.2375 32.2596 35.3573 32.2229L54.0039 26.5142C54.2458 26.4404 54.5071 26.4656 54.7305 26.5842C54.9538 26.7029 55.121 26.9053 55.1952 27.147L56.5604 31.606C56.6341 31.8479 56.6089 32.1092 56.4903 32.3325C56.3717 32.5558 56.1693 32.723 55.9276 32.7973L37.2809 38.506C37.1906 38.5337 37.0966 38.5478 37.0022 38.5479V38.5479Z" fill="#7891FF"/>
<path d="M44.1529 29.7647C45.3235 29.7647 46.2725 28.8157 46.2725 27.6451C46.2725 26.4744 45.3235 25.5254 44.1529 25.5254C42.9822 25.5254 42.0332 26.4744 42.0332 27.6451C42.0332 28.8157 42.9822 29.7647 44.1529 29.7647Z" fill="#7891FF"/>
<path d="M44.1528 28.9872C44.8941 28.9872 45.495 28.3863 45.495 27.645C45.495 26.9037 44.8941 26.3027 44.1528 26.3027C43.4115 26.3027 42.8105 26.9037 42.8105 27.645C42.8105 28.3863 43.4115 28.9872 44.1528 28.9872Z" fill="white"/>
<path opacity="0.5" d="M87.7252 86.725H51.9028C51.664 86.7248 51.435 86.6298 51.2661 86.4609C51.0972 86.292 51.0022 86.063 51.002 85.8242V42.9009C51.0022 42.662 51.0972 42.433 51.2661 42.2642C51.435 42.0953 51.664 42.0003 51.9028 42H87.7252C87.9641 42.0003 88.1931 42.0953 88.3619 42.2642C88.5308 42.433 88.6258 42.662 88.6261 42.9009V85.8242C88.6258 86.063 88.5308 86.292 88.3619 86.4609C88.193 86.6298 87.9641 86.7248 87.7252 86.725V86.725Z" fill="white"/>
<path d="M47.0273 84.8773V85.2149L47.0273 90.1976L47.0273 90.198C47.0281 90.7418 47.2445 91.2631 47.629 91.6477C48.0136 92.0322 48.5349 92.2486 49.0787 92.2494H49.0791H90.8366H90.8369C91.3807 92.2486 91.9021 92.0322 92.2866 91.6477C92.6712 91.2631 92.8875 90.7418 92.8883 90.198V90.1976V41.6572V41.6568C92.8875 41.113 92.6712 40.5917 92.2866 40.2072C91.9021 39.8226 91.3807 39.6062 90.8369 39.6055L90.8366 39.8174V39.6055H71.5728H71.3886L49.0791 39.6055L49.0787 39.6055C48.5349 39.6062 48.0136 39.8226 47.629 40.2072C47.2445 40.5917 47.0281 41.113 47.0273 41.6568V41.6572V84.8773ZM49.0792 40.3174H71.4543H71.7936H90.8364C91.1916 40.3179 91.5322 40.4592 91.7834 40.7104C92.0346 40.9616 92.1759 41.3022 92.1763 41.6575V90.1973C92.1759 90.5526 92.0346 90.8932 91.7834 91.1444C91.5321 91.3956 91.1915 91.537 90.8363 91.5374H49.0794C48.7241 91.537 48.3835 91.3956 48.1323 91.1444C47.8811 90.8932 47.7398 90.5527 47.7393 90.1975V84.9977V84.8126V41.6573C47.7398 41.3021 47.8811 40.9616 48.1323 40.7104C48.3835 40.4592 48.724 40.3179 49.0792 40.3174Z" fill="#D0D5DD" stroke="#D0D5DD" stroke-width="0.5"/>
<path d="M79.7087 44.5202H60.2078C59.9549 44.5199 59.7124 44.4193 59.5336 44.2405C59.3548 44.0617 59.2542 43.8192 59.2539 43.5663V38.9031C59.2542 38.6502 59.3548 38.4077 59.5336 38.2289C59.7124 38.0501 59.9549 37.9495 60.2078 37.9492H79.7087C79.9616 37.9495 80.2041 38.0501 80.3829 38.2289C80.5617 38.4077 80.6623 38.6502 80.6626 38.9031V43.5663C80.6623 43.8192 80.5617 44.0617 80.3829 44.2405C80.2041 44.4193 79.9616 44.5199 79.7087 44.5202V44.5202Z" fill="#7891FF"/>
<path d="M69.9585 38.2667C71.1292 38.2667 72.0782 37.3177 72.0782 36.147C72.0782 34.9764 71.1292 34.0273 69.9585 34.0273C68.7879 34.0273 67.8389 34.9764 67.8389 36.147C67.8389 37.3177 68.7879 38.2667 69.9585 38.2667Z" fill="#7891FF"/>
<path d="M69.9581 37.4376C70.6711 37.4376 71.2491 36.8596 71.2491 36.1465C71.2491 35.4335 70.6711 34.8555 69.9581 34.8555C69.245 34.8555 68.667 35.4335 68.667 36.1465C68.667 36.8596 69.245 37.4376 69.9581 37.4376Z" fill="white"/>
<path d="M65.2861 59.2852L74.7145 68.7135M65.2861 68.7135L74.7145 59.2852" stroke="#7891FF" stroke-width="2" stroke-linecap="square"/>
</svg>
