<svg width="460" height="260" viewBox="0 0 460 260" fill="none" xmlns="http://www.w3.org/2000/svg">
<path d="M230 259.912C357.025 259.912 460 247.999 460 233.304C460 218.609 357.025 206.696 230 206.696C102.975 206.696 0 218.609 0 233.304C0 247.999 102.975 259.912 230 259.912Z" fill="#EAECF0"/>
<path d="M249.892 229.188C251.401 229.696 294.618 229.849 296.273 228.811C296.904 228.419 297.289 222.126 297.543 214.512C297.601 212.864 297.645 211.166 297.688 209.431L301.187 186.385L272.298 186.197L269.569 209.257L269.678 214.337C269.678 214.337 253.107 221.683 251.416 223.011C249.725 224.34 248.389 228.673 249.892 229.188Z" fill="#FFC8C1"/>
<path d="M249.892 229.183C251.401 229.691 294.618 229.844 296.273 228.806C297.035 228.327 297.456 219.137 297.688 209.433L269.569 209.259L269.678 214.34C269.678 214.34 253.107 221.685 251.416 223.013C249.725 224.342 248.389 228.668 249.892 229.183Z" fill="white"/>
<path d="M249.892 229.19C251.401 229.698 294.618 229.851 296.273 228.813C296.904 228.421 297.289 222.128 297.543 214.514L269.678 214.333C269.678 214.333 253.107 221.678 251.416 223.006C249.725 224.335 248.389 228.675 249.892 229.19Z" fill="#FEC84B"/>
<path opacity="0.1" d="M268.841 216.332C271.744 216.332 275.097 217.341 276.89 219.714C276.963 219.809 276.832 219.903 276.745 219.86C274.203 218.522 271.527 217.459 268.761 216.688C268.714 216.677 268.673 216.648 268.647 216.607C268.621 216.567 268.612 216.517 268.623 216.47C268.633 216.423 268.662 216.382 268.703 216.356C268.744 216.33 268.793 216.321 268.841 216.332Z" fill="#1D2939"/>
<path opacity="0.1" d="M266.597 217.193C269.501 217.193 272.854 218.202 274.647 220.583C274.72 220.67 274.589 220.771 274.502 220.721C271.962 219.381 269.285 218.32 266.518 217.556C266.477 217.539 266.443 217.508 266.423 217.469C266.402 217.43 266.396 217.384 266.406 217.341C266.415 217.298 266.44 217.259 266.475 217.232C266.51 217.205 266.553 217.191 266.597 217.193Z" fill="#1D2939"/>
<path opacity="0.1" d="M264.355 218.069C267.258 218.033 270.611 219.071 272.412 221.452C272.477 221.539 272.346 221.64 272.259 221.597C269.721 220.252 267.044 219.189 264.275 218.425C264.228 218.414 264.187 218.386 264.161 218.345C264.135 218.304 264.126 218.254 264.137 218.207C264.148 218.16 264.176 218.119 264.217 218.093C264.258 218.067 264.308 218.059 264.355 218.069Z" fill="#1D2939"/>
<path opacity="0.1" d="M262.112 218.935C265.015 218.935 268.376 219.936 270.169 222.317C270.234 222.404 270.103 222.506 270.016 222.462C267.478 221.117 264.801 220.054 262.032 219.29C261.985 219.28 261.944 219.251 261.918 219.21C261.892 219.169 261.883 219.12 261.894 219.073C261.905 219.025 261.934 218.984 261.974 218.958C262.015 218.933 262.065 218.924 262.112 218.935Z" fill="#1D2939"/>
<path d="M343.648 79.8442C343.648 79.8442 310.092 136.924 309.192 140.931C307.813 147.093 300.482 207.904 300.482 207.904L265.57 207.279C265.57 207.279 271.587 153.655 277.285 135.995C281.393 123.271 311 81.0709 311 81.0709L343.648 79.8442Z" fill="#475467"/>
<path d="M337.921 85.0784C335.744 88.5262 333.399 91.9013 331.149 95.32C328.899 98.7387 326.663 102.165 324.45 105.612C320.032 112.493 315.715 119.437 311.501 126.444C309.457 129.669 307.706 133.069 306.267 136.606C304.957 140.16 303.973 143.826 303.328 147.558C302.638 151.311 302.188 155.093 301.767 158.874C301.312 162.9 300.862 166.926 300.417 170.952C299.498 179.178 298.578 187.419 297.659 195.674C297.543 196.683 297.434 197.699 297.332 198.708C297.332 198.861 297.579 198.89 297.601 198.708C298.624 190.521 299.481 182.312 300.417 174.11L301.811 161.901C302.239 158.105 302.653 154.309 303.262 150.527C303.807 146.808 304.63 143.135 305.723 139.538C306.92 135.811 308.529 132.23 310.521 128.861C314.564 121.886 318.846 115.026 323.129 108.189C327.411 101.352 331.802 94.3982 336.324 87.6261C336.876 86.7914 337.442 85.9567 338.023 85.1365C338.103 85.0712 337.965 85.0131 337.921 85.0784Z" fill="#344054"/>
<path d="M313.983 233.985C315.573 234.087 358.455 222.785 359.791 221.363C359.849 221.277 359.884 221.176 359.892 221.072C360.059 219.664 357.867 214.402 356.328 207.659C356.234 207.231 355.428 205.184 354.296 202.418C351.182 194.833 345.629 181.797 345.629 181.797L317.634 188.983L327.941 209.706L329.334 214.576C329.334 214.576 315.173 225.906 313.881 227.641C312.589 229.376 312.401 233.869 313.983 233.985Z" fill="#FFC8C1"/>
<path d="M313.983 233.988C315.572 234.09 358.455 222.788 359.79 221.366C359.849 221.28 359.884 221.179 359.892 221.075C360.059 219.667 357.867 214.405 356.328 207.662C356.234 207.234 355.428 205.187 354.296 202.421L327.948 209.68L329.342 214.55C329.342 214.55 315.18 225.88 313.888 227.615C312.596 229.35 312.4 233.872 313.983 233.988Z" fill="white"/>
<path d="M313.983 233.986C315.572 234.102 358.455 222.793 359.79 221.371C360.298 220.834 359.188 215.034 356.328 207.667L329.342 214.591C329.342 214.591 315.18 225.907 313.888 227.657C312.596 229.406 312.4 233.877 313.983 233.986Z" fill="#FEC84B"/>
<path opacity="0.1" d="M327.412 216.766C330.207 215.997 333.72 216.142 336.057 217.986C336.152 218.058 336.057 218.189 335.956 218.167C333.168 217.513 330.319 217.16 327.456 217.115C327.416 217.11 327.379 217.091 327.351 217.063C327.323 217.034 327.305 216.997 327.3 216.957C327.295 216.918 327.303 216.877 327.324 216.843C327.344 216.808 327.375 216.781 327.412 216.766Z" fill="#1D2939"/>
<path opacity="0.1" d="M325.467 218.18C328.261 217.411 331.774 217.556 334.111 219.399C334.206 219.472 334.111 219.603 334.003 219.581C331.214 218.94 328.364 218.602 325.503 218.572C325.451 218.577 325.399 218.561 325.359 218.527C325.319 218.494 325.294 218.446 325.289 218.394C325.284 218.342 325.3 218.29 325.333 218.25C325.367 218.21 325.415 218.185 325.467 218.18Z" fill="#1D2939"/>
<path opacity="0.1" d="M323.515 219.587C326.316 218.818 329.822 218.963 332.167 220.807C332.254 220.879 332.167 221.003 332.058 220.988C329.27 220.335 326.421 219.985 323.558 219.943C323.515 219.941 323.474 219.924 323.442 219.895C323.41 219.866 323.39 219.826 323.385 219.784C323.38 219.741 323.39 219.698 323.414 219.662C323.437 219.626 323.473 219.599 323.515 219.587Z" fill="#1D2939"/>
<path opacity="0.1" d="M321.569 220.989C324.363 220.227 327.876 220.372 330.214 222.216C330.308 222.288 330.214 222.412 330.112 222.39C327.324 221.744 324.474 221.396 321.612 221.352C321.564 221.358 321.516 221.344 321.478 221.314C321.44 221.284 321.415 221.24 321.409 221.192C321.403 221.144 321.417 221.096 321.447 221.058C321.477 221.02 321.521 220.995 321.569 220.989Z" fill="#1D2939"/>
<path d="M326.024 208.348L357.395 200.117C357.395 200.117 327.36 141.012 327.636 136.933C327.854 133.304 349.636 101.599 350.863 95.6618C352.83 85.9428 348.097 77.2618 343.51 71.8906L311.065 81.0362C311.065 81.0362 313.649 86.6469 318.396 90.189C318.396 90.189 298.007 124.231 297.485 135.438C296.962 146.645 326.024 208.348 326.024 208.348Z" fill="#475467"/>
<path d="M313.366 88.9002C316.475 90.0538 319.479 91.472 322.345 93.1391C322.368 93.1507 322.385 93.1709 322.394 93.1954C322.402 93.2199 322.4 93.2467 322.388 93.2698C322.377 93.2929 322.356 93.3104 322.332 93.3186C322.307 93.3268 322.281 93.3249 322.258 93.3133C319.231 91.9923 316.139 90.7293 313.192 89.2486C313.151 89.2224 313.122 89.1822 313.109 89.1357C313.097 89.0892 313.102 89.0396 313.123 88.9965C313.145 88.9534 313.181 88.9197 313.226 88.902C313.271 88.8842 313.321 88.8836 313.366 88.9002Z" fill="#344054"/>
<path d="M317.177 88.1069C317.407 88.6771 317.601 89.2614 317.757 89.8562C317.928 90.3204 318.004 90.8138 317.982 91.3078C317.973 91.3244 317.959 91.3382 317.942 91.3478C317.926 91.3574 317.907 91.3624 317.888 91.3624C317.869 91.3624 317.85 91.3574 317.833 91.3478C317.817 91.3382 317.803 91.3244 317.794 91.3078C317.522 90.8739 317.316 90.4017 317.184 89.907C316.988 89.3626 316.777 88.8255 316.603 88.2811C316.48 87.9327 317.053 87.7585 317.177 88.1069Z" fill="#344054"/>
<path d="M317.177 85.1652C317.046 84.6644 316.916 84.1708 316.778 83.67C316.64 83.1692 316.451 82.6538 316.349 82.1312C316.349 82.0514 316.204 82.0877 316.226 82.1312C316.349 82.632 316.408 83.1546 316.495 83.6627C316.582 84.1708 316.683 84.6789 316.785 85.1797C316.976 86.1308 317.219 87.0709 317.511 87.996C317 87.9588 316.504 87.8075 316.059 87.5532C315.626 87.1951 315.316 86.7102 315.174 86.1669C314.97 85.6007 314.789 85.0273 314.578 84.4684C314.317 83.8557 314.108 83.2219 313.954 82.574C313.954 82.4869 313.809 82.5232 313.824 82.574C314.074 83.9423 314.46 85.2821 314.978 86.5733C315.203 87.0814 315.37 87.604 315.87 87.8508C316.421 88.0841 317.014 88.2003 317.612 88.192C317.678 88.192 317.779 88.192 317.765 88.0976C317.612 87.1685 317.424 86.1451 317.177 85.1652Z" fill="#344054"/>
<path d="M317.714 91.3198C316.48 93.5481 315.072 95.6748 313.751 97.8523C312.43 100.03 311.239 102.149 310.035 104.327C307.61 108.725 305.36 113.24 303.306 117.827C302.29 120.097 301.322 122.393 300.403 124.716C299.446 127.027 298.658 129.404 298.044 131.829C297.466 134.249 297.358 136.757 297.724 139.218C298.183 141.741 298.834 144.226 299.67 146.65C301.351 152.204 303.398 157.64 305.796 162.924C305.875 163.098 306.166 162.967 306.1 162.786C304.388 157.952 302.616 153.132 301.07 148.269C299.582 143.522 297.811 138.601 298.632 133.556C299.09 131.137 299.78 128.767 300.693 126.479C301.574 124.128 302.512 121.803 303.509 119.504C305.484 114.968 307.69 110.562 309.955 106.17C311.218 103.71 312.546 101.278 313.831 98.8249C315.115 96.3716 316.378 93.8312 317.823 91.4504C317.866 91.3125 317.779 91.2544 317.714 91.3198Z" fill="#344054"/>
<path d="M341.34 86.5664C340.752 86.472 339.888 86.6753 337.355 86.5011C336.651 86.4387 335.952 86.3247 335.264 86.1599C334.567 86.0508 333.904 85.7825 333.326 85.376C332.406 84.5055 331.656 83.4718 331.113 82.3275C330.434 81.1479 329.914 79.8837 329.567 78.5677C329.567 78.4878 329.429 78.5241 329.443 78.604C329.581 79.3298 329.654 80.0556 329.85 80.825C330.036 81.5163 330.279 82.1911 330.576 82.8429C331.042 84.1324 331.823 85.2851 332.847 86.1962C333.994 87.06 335.598 87.2197 336.985 87.3213C337.79 87.3793 340.948 87.3213 341.34 86.8422C341.456 86.7624 341.449 86.5882 341.34 86.5664Z" fill="#344054"/>
<path d="M349.607 193.359C345.649 185.317 341.778 177.224 337.994 169.08C334.21 160.936 330.537 152.731 326.975 144.467C325.99 142.526 325.205 140.491 324.631 138.391C324.145 136.09 324.856 134.036 325.829 131.953C327.638 128.176 329.662 124.504 331.889 120.957C334.067 117.386 336.419 113.894 338.719 110.389C341.099 106.955 343.28 103.387 345.252 99.7042C347.038 96.1404 348.032 92.3443 347.524 88.3522C347.016 84.3601 345.296 80.6728 343.459 77.167C342.973 76.2452 342.472 75.3306 342.007 74.4016C341.971 74.3362 341.862 74.4016 341.906 74.4669C343.953 78.1396 345.92 81.9938 346.878 86.0803C347.371 88.117 347.523 90.2215 347.328 92.308C347.073 94.4143 346.48 96.4657 345.571 98.3832C343.866 102.129 341.485 105.584 339.242 109.017C336.999 112.45 334.611 116.021 332.376 119.578C330.104 123.138 328.018 126.813 326.126 130.589C325.299 132.28 324.391 134.044 324.188 135.938C323.97 138.021 324.718 140.01 325.524 141.89C329.008 150.063 332.68 158.17 336.411 166.234C340.142 174.299 344.011 182.392 347.938 190.405L349.389 193.432C349.484 193.599 349.665 193.482 349.607 193.359Z" fill="#344054"/>
<path d="M310.347 11.3625C311.073 8.04544 314.76 0.540288 322.04 2.00648C332.434 4.10415 333.937 24.13 339.112 30.3722C348.482 41.6807 348.787 52.8731 341.108 54.6659C332.499 56.6693 324.123 47.4076 324.414 27.4471C324.61 14.9481 321.089 9.41001 318.607 9.78019C316.125 10.1504 314.753 13.3078 314.753 13.3078L310.347 11.3625Z" fill="#263238"/>
<path d="M310.695 10.1163C311.209 8.56906 311.909 7.0897 312.778 5.7105C313.651 4.29736 314.807 3.0812 316.175 2.13938C317.591 1.18263 319.272 0.695123 320.98 0.74577C322.674 0.796872 324.33 1.25762 325.807 2.08857C327.247 2.94997 328.485 4.11094 329.436 5.49275C330.377 6.85047 331.159 8.31171 331.766 9.84777C332.919 12.8932 333.727 16.0583 334.176 19.2837C333.385 16.1652 332.361 13.1106 331.113 10.1454C330.465 8.69551 329.67 7.31638 328.739 6.02986C327.836 4.76007 326.673 3.69632 325.328 2.90877C323.981 2.14081 322.471 1.70534 320.922 1.63856C319.389 1.56679 317.871 1.9616 316.567 2.77086C315.23 3.61407 314.069 4.7085 313.148 5.99358C312.667 6.63521 312.224 7.30409 311.82 7.99689C311.414 8.66466 311.043 9.38323 310.695 10.1163Z" fill="#263238"/>
<path d="M324.377 20.5674C324.486 22.5489 324.377 24.5377 324.333 26.5192C324.29 28.5008 324.21 30.4751 324.203 32.4493C324.195 34.4236 324.261 36.3906 324.464 38.3431C324.63 40.2868 324.985 42.2097 325.524 44.0845C326.034 45.9473 326.894 47.6961 328.057 49.2379C329.277 50.7388 330.751 52.0139 332.412 53.005C334.075 54.0143 335.952 54.6162 337.892 54.7616C338.862 54.8365 339.838 54.7853 340.795 54.6091C341.287 54.5171 341.772 54.391 342.247 54.2317C342.72 54.0919 343.17 53.8841 343.583 53.6147C342.773 54.204 341.852 54.6215 340.875 54.8414C339.901 55.0952 338.898 55.2196 337.892 55.2116C336.876 55.193 335.867 55.0492 334.887 54.7833C333.909 54.5084 332.967 54.1211 332.078 53.6293C331.187 53.1412 330.346 52.5675 329.567 51.9163L328.993 51.4227L328.442 50.9074C328.067 50.5547 327.718 50.1764 327.396 49.7751C326.148 48.1561 325.222 46.3132 324.667 44.3458C323.662 40.4603 323.275 36.4407 323.52 32.4348C323.578 30.446 323.731 28.4645 323.905 26.4902C324.079 24.5159 324.312 22.5489 324.377 20.5674Z" fill="#263238"/>
<path d="M309.752 11.4185C309.635 10.4967 310.194 9.24097 310.775 9.01596C311.356 8.79095 315.986 10.2789 316.473 11.3895C316.959 12.5 315.086 13.6831 315.086 13.6831L309.752 11.4185Z" fill="#FFC727"/>
<path d="M315.297 44.1085C312.444 48.1804 291.816 65.0271 280.566 65.6513C275.485 65.9271 255.611 63.7641 251.184 61.9423C245.747 59.7067 256.497 46.2424 259.894 46.8158C264.147 47.5417 279.23 49.1313 282.235 49.2111C287.055 49.3345 301.833 41.2269 311.784 39.1147C316.93 38.0332 317.504 40.9729 315.297 44.1085Z" fill="#FFC8C1"/>
<path d="M315.072 44.8753C311.921 50.3698 300.802 59.7912 300.802 59.7912L298.907 56.2927L292.636 44.7446C292.636 44.7446 303.175 40.5493 310.165 38.5097C310.986 38.2578 311.826 38.0733 312.676 37.958C317.191 37.3774 317.779 40.1573 315.072 44.8753Z" fill="#DBDBDB"/>
<path d="M315.072 44.8762C311.922 50.3708 300.802 59.7921 300.802 59.7921L298.907 56.2936L297.615 53.9128L292.629 44.7528C292.629 44.7528 303.175 40.5429 310.165 38.5033C310.987 38.2584 311.827 38.0764 312.677 37.9589C312.766 37.9522 312.856 37.9522 312.945 37.9589C317.213 37.4944 317.736 40.2526 315.072 44.8762Z" fill="#BAC1CD"/>
<path d="M304.787 70.1801L306.434 88.326C308.654 88.2237 310.866 88.0007 313.061 87.6582C318.851 86.7896 324.587 85.5949 330.242 84.0798C335.852 82.6282 342.428 80.6249 349.948 77.9538C349.948 77.9538 332.942 47.2799 321.205 38.8166C320.936 38.6207 320.675 38.4392 320.407 38.2723C320.356 38.2287 320.305 38.2069 320.254 38.1707C314.919 34.7955 310.092 37.4448 307.421 41.2046C306.746 42.1482 300.214 56.9989 300.54 61.9781C300.838 66.3549 304.787 70.1801 304.787 70.1801Z" fill="#D0D5DD"/>
<path d="M316.923 37.8705C316.821 38.5964 313.932 43.3143 310.782 43.4377C309.752 43.474 309.294 37.885 309.294 37.885L309.164 37.4786L307.371 31.8098L313.787 26.8959L314.724 26.2354C314.724 26.2354 315.108 27.8249 315.573 29.7992L315.638 30.0823C315.638 30.1912 315.696 30.2928 315.718 30.4017L315.936 31.2944C315.987 31.5267 316.037 31.7517 316.081 32.0203L316.233 32.7461C316.58 34.4365 316.81 36.1486 316.923 37.8705Z" fill="#FFC8C1"/>
<path d="M315.602 29.7992C315.159 31.474 314.356 33.032 313.249 34.3646C312.142 35.6972 310.758 36.7722 309.193 37.5149L307.4 31.8461L313.787 26.8959L314.724 26.2354C314.724 26.2354 315.108 27.7886 315.602 29.7992Z" fill="#F7A9A0"/>
<path d="M299.415 23.258C299.365 33.6955 305.614 34.9076 307.864 34.9149C309.904 34.9149 316.864 34.6899 318.026 24.3104C319.187 13.9309 314.317 10.6139 309.65 10.3453C304.982 10.0768 299.466 12.7986 299.415 23.258Z" fill="#FFC8C1"/>
<path d="M317.424 25.0179C315.718 25.1921 315.246 21.6137 315.246 21.6137C315.246 21.6137 311.769 21.7153 310.499 16.7361C310.634 18.2339 311.204 19.6596 312.14 20.8371C312.14 20.8371 305.977 20.358 303.263 15.2772C303.263 15.2772 304.359 17.8684 305.346 18.7757C303.779 18.3336 302.406 17.3775 301.448 16.0611C301.448 16.0611 300.446 19.0515 299.641 19.8862C299.641 19.8862 298.45 14.6312 300.635 11.902C305.237 6.09533 312.793 11.1762 312.793 11.1762C312.793 11.1762 317.017 11.8149 318.527 14.9796C320.857 19.8209 317.424 25.0179 317.424 25.0179Z" fill="#263238"/>
<path d="M316.327 25.0803C316.327 25.0803 318.331 21.6471 319.877 22.3366C321.423 23.0262 320.094 27.8748 318.425 28.6587C318.219 28.7749 317.991 28.8483 317.756 28.8746C317.52 28.9009 317.282 28.8796 317.055 28.8118C316.828 28.7441 316.617 28.6314 316.435 28.4804C316.252 28.3293 316.102 28.1431 315.993 27.9328L316.327 25.0803Z" fill="#FFC8C1"/>
<path d="M315.391 36.6138C316.669 36.6138 318.817 36.9331 321.72 39.1397C321.72 39.1397 315.667 44.0101 310.034 44.0101C308.024 44.0101 307.421 41.2011 307.421 41.2011C307.421 41.2011 310.129 36.6573 315.391 36.6138Z" fill="#FFC8C1"/>
<path d="M411.02 245.601H387.307C370.076 245.601 359.537 233.69 357.642 212.068C356.706 201.405 356.132 188.5 355.53 174.84C353.672 132.864 351.124 75.3999 334.785 75.3999H316.008V71.0449H334.785C355.283 71.0449 357.62 123.719 359.878 174.658C360.48 188.275 361.054 201.137 361.983 211.676C363.166 225.162 368.515 241.239 387.307 241.239H411.02V245.601Z" fill="#A1B5FF"/>
<path opacity="0.2" d="M329.799 71.0249L328.87 75.3799H316.008V71.0249H329.799Z" fill="black"/>
<path d="M280.616 47.144H273.024V100.195H280.616V47.144Z" fill="#4F69FF"/>
<path d="M273.031 51.0615H244.165V95.7295H273.031V51.0615Z" fill="#4F69FF"/>
<path opacity="0.1" d="M273.024 51.0615V95.7295H265.853L262.637 51.0615H273.024Z" fill="#1D2939"/>
<path d="M222.012 59.0811H244.157V65.7588H222.012C221.254 65.7588 220.526 65.4574 219.99 64.9211C219.454 64.3848 219.152 63.6574 219.152 62.899V61.9481C219.151 61.5719 219.225 61.1993 219.368 60.8515C219.511 60.5037 219.722 60.1876 219.987 59.9212C220.253 59.6549 220.569 59.4436 220.916 59.2994C221.264 59.1553 221.636 59.0811 222.012 59.0811Z" fill="#C9D7FF"/>
<path d="M244.158 59.0811H236.384V65.7515H244.158V59.0811Z" fill="#A1B5FF"/>
<path d="M222.012 81.04H244.157V87.7177H222.012C221.254 87.7177 220.526 87.4164 219.99 86.8801C219.454 86.3438 219.152 85.6164 219.152 84.8579V83.9071C219.151 83.5309 219.225 83.1583 219.368 82.8105C219.511 82.4627 219.722 82.1465 219.987 81.8802C220.253 81.6139 220.569 81.4026 220.916 81.2584C221.264 81.1142 221.636 81.04 222.012 81.04Z" fill="#C9D7FF"/>
<path d="M244.158 81.04H236.384V87.7105H244.158V81.04Z" fill="#A1B5FF"/>
<path d="M325.48 69.1357H302.928V78.0418H325.48V69.1357Z" fill="#FFC727"/>
<path d="M325.48 69.1357H302.928V78.0418H325.48V69.1357Z" fill="#4F69FF"/>
<path opacity="0.2" d="M310.847 69.1357L310.107 78.0418H302.928V69.1357H310.847Z" fill="black"/>
<path d="M280.616 52.7461H298.464C299.648 52.7461 300.784 53.2164 301.621 54.0535C302.458 54.8907 302.928 56.0261 302.928 57.21V89.5896C302.928 90.7735 302.458 91.9089 301.621 92.746C300.784 93.5832 299.648 94.0535 298.464 94.0535H280.616V52.7461Z" fill="#4F69FF"/>
<path opacity="0.1" d="M290.11 52.7461L286.895 94.0535H280.624V52.7461H290.11Z" fill="#1D2939"/>
<path d="M323.39 44.2181C325.887 51.2224 322.308 76.8808 318.077 82.3173C311.791 90.3741 299.372 97.7849 294.625 100.1C292.549 101.109 283.251 86.2441 285.276 84.8577C289.631 81.8745 303.502 74.7541 304.678 73.3387C305.854 71.9233 312.183 58.3284 314.716 50.6853C318.12 40.422 322.134 40.6833 323.39 44.2181Z" fill="#FFC8C1"/>
<path d="M294.61 100.145C288.027 103.905 274.926 103.353 273.14 102.809L270.832 102.083C268.081 101.306 267.341 99.7893 267.341 99.7893C267.341 99.7893 263.9 99.8329 263.523 97.757C263.102 95.4271 268.016 95.819 270.854 94.3819C277.386 91.0938 285.675 84.5903 287.454 83.458L294.61 100.145Z" fill="#FFC8C1"/>
<path d="M280.094 95.733C278.204 96.7231 276.246 97.5793 274.236 98.2952C271.993 98.9457 269.706 99.4308 267.392 99.7469C267.381 99.751 267.371 99.7584 267.364 99.7682C267.357 99.7779 267.354 99.7895 267.354 99.8013C267.354 99.8132 267.357 99.8248 267.364 99.8345C267.371 99.8442 267.381 99.8516 267.392 99.8558C271.933 99.7322 276.354 98.3666 280.174 95.9072C280.268 95.8491 280.188 95.6895 280.094 95.733Z" fill="#F7A9A0"/>
<path d="M282.648 99.3555C280.717 100.154 277.313 101.533 270.824 102.012C270.824 102.012 270.824 102.048 270.824 102.056C274.945 102.34 279.064 101.473 282.721 99.5514C282.837 99.4643 282.779 99.3047 282.648 99.3555Z" fill="#F7A9A0"/>
<path d="M278.439 89.9338C279.114 89.208 278.714 88.816 276.929 89.1354C275.143 89.4547 268.357 92.2565 267.58 89.8104C266.803 87.3643 276.442 83.5464 279.455 83.2343C282.176 83.0935 284.905 83.1736 287.613 83.4738C285.886 84.5916 281.792 87.6982 278.439 89.9338Z" fill="#FFC8C1"/>
<path d="M316.385 45.9833C320.777 36.7434 324.783 39.1894 325.168 48.3277C325.298 54.6738 325.012 61.0215 324.312 67.3301L308.394 62.7719C308.394 62.7719 313.577 51.8988 316.385 45.9833Z" fill="#BAC1CD"/>
<path d="M245.631 62.455C247.808 63.1228 247.366 60.1469 247.366 60.1469C247.366 60.1469 249.071 64.2696 251.605 64.0882C254.138 63.9067 253.354 60.3283 253.31 60.067C253.397 60.2848 255.067 64.0301 257.593 63.5873C260.119 63.1446 258.906 59.646 258.819 59.4283C258.972 59.6025 260.997 61.9179 262.855 61.1413C266.02 59.8057 260.968 53.7377 261.338 50.9795L265.787 51.1102C265.934 51.0961 266.079 51.0743 266.223 51.0449L266.39 48.773C264.968 48.1958 263.594 47.5065 262.282 46.7116C260.605 45.768 258.986 44.9115 257.781 44.8825C257.241 44.8536 256.705 44.9997 256.254 45.2991C255.803 45.5985 255.461 46.0353 255.277 46.5447C255.277 46.5447 253.971 44.4833 251.967 44.7736C250.944 44.9261 250.276 46.7044 250.276 46.7044C249.955 46.2491 249.513 45.892 249 45.6729C248.488 45.4537 247.924 45.3811 247.373 45.4632C245.965 45.7535 245.515 47.4955 245.515 47.4955C245.515 47.4955 243.729 46.4431 242.386 47.2124C239.694 48.7077 240.928 61.0033 245.631 62.455Z" fill="#FFC8C1"/>
<path d="M261.89 50.7158L265.766 51.0715C265.912 51.0574 266.057 51.0356 266.201 51.0062C271.093 50.1206 274.142 44.5172 270.556 44.118C267.863 43.8059 264.945 47.3842 262.224 46.6657L261.89 50.7158Z" fill="#FFC8C1"/>
<path d="M245.42 47.7251H245.355C244.738 52.0185 245.442 56.3981 247.373 60.2821C247.438 60.4055 247.663 60.3474 247.62 60.2022C246.284 56.1722 245.543 51.9689 245.42 47.7251Z" fill="#F7A9A0"/>
<path d="M250.276 46.6074C250.276 46.5566 250.197 46.5566 250.189 46.6074C249.536 51.3414 250.596 56.153 253.18 60.1733C253.274 60.3112 253.499 60.3403 253.397 60.1733C251.786 57.3716 250.276 50.5923 250.276 46.6074Z" fill="#F7A9A0"/>
<path d="M259.11 59.5998C256.606 55.6512 255.611 51.2962 255.241 46.6799C255.241 46.6218 255.154 46.6364 255.139 46.6799C254.711 48.9881 255.255 51.9059 255.865 54.1415C256.398 56.2262 257.466 58.1354 258.964 59.6796C259.037 59.745 259.168 59.6869 259.11 59.5998Z" fill="#F7A9A0"/>
<path d="M197.798 225.036C196.295 225.537 153.275 225.413 151.635 224.375C151.018 223.983 150.669 217.712 150.466 210.127C150.415 208.494 150.386 206.803 150.357 205.082C150.357 203.05 150.299 200.989 150.284 198.985C150.234 190 150.357 182.088 150.357 182.088H178.367V198.985V205.082L178.222 210.127C178.222 210.127 194.669 217.545 196.368 218.881C198.066 220.216 199.3 224.571 197.798 225.036Z" fill="#AD6359"/>
<path d="M197.798 225.043C196.295 225.544 153.275 225.421 151.634 224.383C151.018 223.991 150.669 217.72 150.466 210.135C150.415 208.502 150.386 206.81 150.357 205.09C150.357 203.058 150.299 200.996 150.284 198.993H178.353V205.09L178.207 210.135C178.207 210.135 194.655 217.553 196.353 218.888C198.052 220.224 199.3 224.579 197.798 225.043Z" fill="white"/>
<path d="M197.929 225.133C196.949 225.46 178.629 225.525 165.266 225.249C162.174 225.177 159.35 225.097 157.078 224.995C153.936 224.85 151.831 224.683 151.489 224.466C150.727 223.979 150.372 214.776 150.198 205.064H178.338L178.193 210.145C178.193 210.145 194.735 217.606 196.419 218.949C198.103 220.292 199.467 224.625 197.929 225.133Z" fill="#FEC84B"/>
<path opacity="0.1" d="M178.997 211.466C176.145 210.929 172.654 211.357 170.469 213.382C170.382 213.462 170.469 213.578 170.592 213.549C173.321 212.675 176.137 212.098 178.99 211.829C179.038 211.83 179.085 211.812 179.12 211.778C179.154 211.745 179.174 211.699 179.175 211.651C179.176 211.603 179.158 211.556 179.125 211.522C179.091 211.487 179.046 211.467 178.997 211.466Z" fill="#1D2939"/>
<path opacity="0.1" d="M181.073 212.719C178.221 212.174 174.729 212.603 172.537 214.635C172.458 214.708 172.537 214.831 172.661 214.802C175.394 213.922 178.215 213.341 181.073 213.067C181.111 213.056 181.144 213.033 181.168 213.002C181.191 212.97 181.204 212.932 181.204 212.893C181.204 212.854 181.191 212.815 181.168 212.784C181.144 212.753 181.111 212.73 181.073 212.719Z" fill="#1D2939"/>
<path opacity="0.1" d="M183.113 213.954C180.261 213.41 176.769 213.838 174.584 215.863C174.497 215.943 174.584 216.066 174.701 216.037C177.431 215.165 180.246 214.586 183.099 214.31C183.14 214.303 183.178 214.283 183.206 214.251C183.234 214.22 183.25 214.18 183.252 214.138C183.253 214.096 183.241 214.055 183.215 214.021C183.19 213.988 183.154 213.964 183.113 213.954Z" fill="#1D2939"/>
<path opacity="0.1" d="M185.167 215.21C182.315 214.665 178.823 215.093 176.638 217.119C176.551 217.198 176.638 217.322 176.762 217.293C179.488 216.417 182.302 215.837 185.153 215.565C185.194 215.559 185.232 215.538 185.26 215.507C185.288 215.475 185.304 215.435 185.306 215.393C185.307 215.351 185.295 215.31 185.269 215.277C185.244 215.243 185.208 215.219 185.167 215.21Z" fill="#1D2939"/>
<path d="M182.345 203.081L147.635 203.705C147.635 203.705 142.91 172.995 139.803 153.898C138.628 146.719 137.698 141.174 137.321 139.504C136.421 135.52 118.834 72.2702 118.834 72.2702L144.064 72.2339H152.687C152.687 72.2339 152.135 82.8093 152.462 83.9199C156.962 99.2278 166.159 126.374 169.033 135.832C173.439 150.37 182.345 203.081 182.345 203.081Z" fill="#98A2B3"/>
<path d="M148.202 171.592C147.002 163.651 145.664 155.73 144.188 147.828C143.462 143.945 142.671 140.069 141.655 136.215C140.638 132.36 139.346 128.55 138.025 124.768C135.427 117.248 132.945 109.692 130.615 102.086C128.285 94.4789 126.114 86.8431 124.082 79.142C123.821 78.1694 123.567 77.1967 123.284 76.2386C123.284 76.1588 123.146 76.1951 123.16 76.2386C123.951 80.1146 124.975 83.9543 125.955 87.7867C126.935 91.6191 127.987 95.437 129.083 99.2404C131.29 106.876 133.682 114.459 136.262 121.988C137.546 125.733 138.882 129.472 140.021 133.268C141.161 137.064 142.047 140.911 142.838 144.787C144.442 152.655 145.806 160.574 147.069 168.493C148.332 176.411 149.414 184.461 150.473 192.445C150.611 193.454 150.742 194.47 150.873 195.486C150.909 195.769 151.359 195.769 151.33 195.486C150.51 187.524 149.385 179.547 148.202 171.592Z" fill="#667085"/>
<path d="M144.064 72.2275L139.803 153.906C138.628 146.727 137.698 141.182 137.321 139.513C136.421 135.528 118.834 72.2783 118.834 72.2783L144.064 72.2275Z" fill="#667085"/>
<path d="M154.748 231.919C153.246 232.42 110.225 232.297 108.585 231.252C107.968 230.867 107.62 224.596 107.416 217.011C107.366 215.37 107.337 213.686 107.308 211.966C107.308 209.927 107.249 207.872 107.235 205.869C107.184 196.883 107.308 188.972 107.308 188.972H135.31V211.973L135.165 217.018C135.165 217.018 151.613 224.436 153.311 225.772C155.01 227.107 156.251 231.426 154.748 231.919Z" fill="#AD6359"/>
<path d="M154.748 231.92C153.246 232.421 110.225 232.298 108.585 231.253C107.968 230.868 107.62 224.597 107.416 217.012C107.366 215.371 107.336 213.687 107.307 211.967C107.307 209.928 107.249 207.873 107.235 205.87H135.303V211.974L135.158 217.019C135.158 217.019 151.605 224.437 153.304 225.773C155.002 227.108 156.251 231.427 154.748 231.92Z" fill="white"/>
<path d="M154.879 231.978C153.899 232.297 135.572 232.362 122.217 232.086C119.132 232.021 116.308 231.934 114.029 231.84C110.894 231.695 108.789 231.52 108.44 231.303C107.714 230.816 107.322 221.62 107.156 211.908H135.296L135.151 216.989C135.151 216.989 151.707 224.443 153.391 225.757C155.075 227.071 156.389 231.47 154.879 231.978Z" fill="#FEC84B"/>
<path opacity="0.1" d="M135.448 217.991C132.595 217.446 129.104 217.875 126.919 219.9C126.832 219.98 126.919 220.103 127.035 220.074C129.765 219.202 132.58 218.623 135.433 218.346C135.474 218.34 135.512 218.319 135.54 218.288C135.568 218.257 135.585 218.217 135.586 218.175C135.588 218.133 135.575 218.091 135.55 218.058C135.524 218.024 135.488 218.001 135.448 217.991Z" fill="#1D2939"/>
<path opacity="0.1" d="M137.502 219.246C134.649 218.701 131.158 219.13 128.973 221.155C128.886 221.234 128.973 221.358 129.097 221.329C131.826 220.452 134.641 219.873 137.495 219.601C137.536 219.594 137.573 219.572 137.601 219.541C137.628 219.509 137.643 219.468 137.644 219.426C137.645 219.385 137.631 219.344 137.605 219.311C137.579 219.278 137.543 219.255 137.502 219.246Z" fill="#1D2939"/>
<path opacity="0.1" d="M139.563 220.484C136.71 219.946 133.219 220.375 131.027 222.4C130.947 222.48 131.027 222.596 131.151 222.567C133.881 221.696 136.696 221.12 139.549 220.847C139.597 220.848 139.644 220.831 139.679 220.798C139.714 220.766 139.735 220.72 139.737 220.672C139.739 220.624 139.722 220.577 139.689 220.542C139.657 220.506 139.611 220.486 139.563 220.484Z" fill="#1D2939"/>
<path opacity="0.1" d="M141.617 221.726C138.765 221.189 135.273 221.617 133.089 223.642C133.002 223.722 133.089 223.838 133.205 223.809C135.935 222.939 138.75 222.363 141.603 222.089C141.651 222.091 141.698 222.073 141.733 222.041C141.769 222.008 141.789 221.963 141.791 221.914C141.793 221.866 141.776 221.819 141.743 221.784C141.711 221.749 141.665 221.728 141.617 221.726Z" fill="#1D2939"/>
<path d="M139.223 209.517H105.261C105.261 209.517 112.643 104.212 111.452 98.3113C109.5 88.6504 110.799 77.5523 115.372 72.1812H145.588C145.588 72.1812 146.191 80.6589 143.07 85.7253C143.07 85.7253 140.232 87.5181 138.86 88.3093L139.223 209.517Z" fill="#98A2B3"/>
<path d="M144.957 84.41C141.986 85.8422 139.143 87.525 136.458 89.44C136.436 89.4535 136.42 89.4752 136.414 89.5004C136.408 89.5256 136.412 89.5522 136.425 89.5743C136.439 89.5964 136.46 89.6123 136.486 89.6184C136.511 89.6245 136.537 89.6204 136.559 89.6069C139.463 88.0174 142.366 86.4786 145.153 84.7366C145.197 84.7106 145.228 84.6685 145.24 84.6195C145.252 84.5705 145.245 84.5186 145.219 84.4753C145.193 84.432 145.151 84.4008 145.102 84.3885C145.053 84.3762 145.001 84.384 144.957 84.41Z" fill="#667085"/>
<path d="M141.103 83.9673C140.93 84.5535 140.795 85.1498 140.696 85.7528C140.573 86.2264 140.541 86.719 140.602 87.2045C140.602 87.2989 140.754 87.2916 140.798 87.2045C141.026 86.7471 141.182 86.2575 141.262 85.7528C141.408 85.1939 141.567 84.6423 141.691 84.0834C141.778 83.7278 141.219 83.6044 141.103 83.9673Z" fill="#263238"/>
<path d="M140.834 81.0612C140.914 80.5531 140.994 80.0523 141.088 79.5515C141.183 79.0507 141.313 78.5063 141.364 77.9837C141.364 77.8966 141.509 77.9256 141.495 77.9837C141.415 78.4918 141.408 79.0144 141.364 79.5225C141.321 80.0306 141.277 80.5459 141.226 81.054C141.124 82.0118 140.974 82.9638 140.776 83.9065C141.278 83.8212 141.754 83.6253 142.17 83.3331C142.556 82.9357 142.809 82.4286 142.896 81.8814C143.041 81.3008 143.172 80.7201 143.324 80.1394C143.53 79.5105 143.678 78.8643 143.767 78.2087C143.767 78.1216 143.912 78.1506 143.897 78.2087C143.779 79.5886 143.522 80.9529 143.128 82.2806C143.043 82.8072 142.773 83.286 142.366 83.6307C141.842 83.9103 141.267 84.0807 140.675 84.1315C140.609 84.1315 140.508 84.1315 140.515 84.0517C140.572 83.0502 140.678 82.0521 140.834 81.0612Z" fill="#263238"/>
<path d="M116.359 97.9356C116.141 95.7146 115.779 93.508 115.539 91.287C115.085 86.8405 115.355 82.3499 116.337 77.9896C116.337 77.9098 116.229 77.8735 116.214 77.9896C115.355 81.819 114.955 85.7371 115.024 89.6611C115.22 93.5806 115.916 97.4421 115.975 101.369C116.033 105.296 115.728 109.317 115.474 113.28C115.22 117.243 114.958 121.264 114.704 125.249C113.674 141.283 112.723 157.316 111.743 173.357C111.472 177.829 111.211 182.305 110.959 186.785C110.698 191.336 110.378 195.895 110.233 200.46C110.233 200.852 110.799 200.823 110.836 200.46C111.518 192.411 111.91 184.332 112.425 176.282C112.941 168.233 113.398 160.314 113.877 152.33C114.356 144.346 114.842 136.361 115.329 128.377C115.561 124.39 115.803 120.403 116.054 116.415C116.287 112.445 116.577 108.468 116.635 104.49C116.667 102.302 116.575 100.113 116.359 97.9356Z" fill="#667085"/>
<path d="M127.058 77.6989C127.051 77.6884 127.042 77.6797 127.031 77.6737C127.02 77.6677 127.008 77.6646 126.996 77.6646C126.984 77.6646 126.971 77.6677 126.961 77.6737C126.95 77.6797 126.941 77.6884 126.934 77.6989C126.754 78.2248 126.658 78.7761 126.651 79.332C126.557 79.927 126.419 80.5142 126.237 81.0886C125.904 82.2436 125.279 83.2935 124.423 84.1371C122.521 85.9154 119.973 86.5759 117.52 87.1711C117.504 87.1761 117.49 87.1863 117.48 87.2C117.47 87.2137 117.464 87.2303 117.464 87.2473C117.464 87.2643 117.47 87.2809 117.48 87.2946C117.49 87.3083 117.504 87.3184 117.52 87.3235C118.978 87.3892 120.434 87.1621 121.803 86.6557C123.023 86.2826 124.15 85.6514 125.105 84.8048C126.017 83.9367 126.641 82.8091 126.891 81.5749C127.02 80.9295 127.088 80.2733 127.094 79.6151C127.094 79.303 127.094 78.9909 127.094 78.6715C127.146 78.3481 127.134 78.0176 127.058 77.6989Z" fill="#667085"/>
<path d="M141.284 36.9578C141.908 41.8935 151.576 60.2427 161.869 68.372C165.643 71.3552 185.655 73.119 190.663 72.7271C196.52 72.2771 197.399 58.3337 194.118 57.245C190.017 55.8876 171.043 54.211 167.32 52.8899C162.791 51.2495 154.545 40.7177 146.706 34.1996C142.678 30.8245 140.805 33.1617 141.284 36.9578Z" fill="#AD6359"/>
<path d="M190.663 72.7276C192.514 72.6768 200.984 71.7042 203.285 70.9058C205.586 70.1073 211.995 67.3346 211.589 65.5128C211.182 63.6909 209.208 64.3514 209.208 64.3514C209.208 64.3514 211.741 62.7473 211.139 60.9545C210.536 59.1617 207.509 60.294 207.509 60.294C207.509 60.294 209.992 58.4577 209.259 56.7084C208.526 54.9591 205.702 56.6068 205.702 56.6068C205.702 56.6068 208.054 55.0317 206.849 53.8413C205.397 52.3896 201.391 55.8083 198.792 56.4979C198.197 56.6576 186.583 58.8278 186.583 58.8278L190.663 72.7276Z" fill="#AD6359"/>
<path d="M206 56.481C203.046 58.9634 201.325 59.544 197.566 60.0594C197.553 60.0638 197.542 60.0722 197.534 60.0832C197.526 60.0943 197.522 60.1075 197.522 60.1211C197.522 60.1346 197.526 60.1479 197.534 60.1589C197.542 60.17 197.553 60.1783 197.566 60.1828C201.289 60.0086 203.554 59.5949 206.123 56.6189C206.232 56.4738 206.116 56.3649 206 56.481Z" fill="#263238"/>
<path d="M207.764 60.1005C204.475 62.4522 202.617 63.0547 198.741 63.9039C198.691 63.9039 198.705 64.0128 198.741 64.0055C202.632 63.5047 204.882 63.0401 207.865 60.2965C207.989 60.1586 207.916 59.9916 207.764 60.1005Z" fill="#263238"/>
<path d="M209.005 64.3872C205.659 66.3977 203.648 67.1889 199.758 67.5155C199.738 67.5155 199.72 67.5232 199.706 67.5368C199.693 67.5504 199.685 67.5689 199.685 67.5881C199.685 67.6074 199.693 67.6258 199.706 67.6394C199.72 67.6531 199.738 67.6607 199.758 67.6607C203.15 67.8651 206.486 66.7285 209.048 64.4961C209.244 64.3436 209.215 64.2638 209.005 64.3872Z" fill="#263238"/>
<path d="M183.898 57.3153C185.853 56.0519 187.898 54.9335 190.017 53.9692C192.064 53.2433 200.701 53.2433 200.796 55.116C200.926 57.5258 195.94 58.4911 193.436 58.6508C193.436 58.6508 193.748 64.218 190.315 65.6915C186.881 67.1649 183.898 57.3153 183.898 57.3153Z" fill="#AD6359"/>
<path d="M200.621 55.7862C199.17 58.0654 195.853 58.0581 193.436 58.392C193.399 58.3938 193.363 58.4049 193.332 58.4241C193.301 58.4433 193.275 58.4701 193.257 58.5019C193.239 58.5337 193.229 58.5696 193.229 58.6062C193.228 58.6428 193.237 58.679 193.254 58.7114C193.254 61.0558 192.528 64.3511 190.46 65.7375C190.394 65.781 190.46 65.8754 190.51 65.8391C192.913 64.6487 193.886 61.4841 193.748 58.8928C196.23 58.5952 199.554 58.4573 200.643 55.7935C200.65 55.779 200.629 55.7717 200.621 55.7862Z" fill="#263238"/>
<path d="M173.374 72.4664C173.374 72.4664 163.125 69.6647 161.876 68.6848C160.514 67.6141 159.215 66.4654 157.986 65.2443C148.659 56.077 143.026 43.5781 141.502 39.2231C139.891 34.585 141.371 30.1429 145.69 33.1333C146.038 33.3793 146.372 33.6434 146.692 33.9245C151.773 38.3521 165.36 51.8164 167.015 52.5059C168.67 53.1955 176.647 54.2407 176.647 54.2407L173.374 72.4664Z" fill="#3B4A5F"/>
<path d="M173.337 53.927C172.86 55.3278 172.465 56.7553 172.154 58.2021C171.798 59.6538 171.428 61.1055 171.131 62.5572C170.484 65.4042 170 68.2855 169.679 71.1874C169.679 71.2047 169.686 71.2213 169.698 71.2336C169.71 71.2458 169.727 71.2527 169.744 71.2527C169.762 71.2527 169.778 71.2458 169.79 71.2336C169.803 71.2213 169.81 71.2047 169.81 71.1874C170.594 68.3421 171.174 65.4315 171.769 62.5426C172.067 61.091 172.336 59.6828 172.633 58.2602C172.931 56.8376 173.286 55.3569 173.446 53.9487C173.449 53.9343 173.446 53.9193 173.438 53.907C173.43 53.8948 173.417 53.8863 173.402 53.8834C173.388 53.8805 173.373 53.8835 173.361 53.8916C173.349 53.8998 173.34 53.9125 173.337 53.927Z" fill="#263238"/>
<path d="M152.382 77.1632C150.931 78.4697 149.159 80.3787 138.969 81.09C138.33 81.09 137.677 81.1408 137.023 81.09C127.21 80.8142 113.441 73.1058 112.621 72.4961C112.621 72.4961 123.196 43.8836 137.183 32.9017C139.179 31.3266 143.462 32.1032 146.14 33.7219C147.098 34.3025 150.263 39.5939 150.901 44.4134C151.54 49.233 153.827 75.8567 152.382 77.1632Z" fill="#475467"/>
<path d="M144.434 40.8974C141.967 41.1006 138.432 36.8327 137.27 33.639C137.191 33.4212 137.829 31.3381 138.483 28.7686C138.875 27.2081 139.274 25.4661 139.521 23.8474C139.571 23.5135 140.609 24.2974 140.609 24.2974L142.627 25.1249L149.305 27.8686C148.413 29.8042 147.762 31.8421 147.367 33.9366C147.345 34.1635 147.345 34.3919 147.367 34.6189C147.37 34.6551 147.37 34.6915 147.367 34.7277C147.345 36.0125 146.815 40.6796 144.434 40.8974Z" fill="#C49089"/>
<path d="M147.338 34.6078C147.341 34.644 147.341 34.6804 147.338 34.7167C146.984 34.7122 146.632 34.6782 146.285 34.615C139.462 33.4174 139.948 24.584 139.948 24.584L142.634 25.1138L149.312 27.8575C148.42 29.7931 147.769 31.8311 147.374 33.9255C147.34 34.1513 147.328 34.3797 147.338 34.6078Z" fill="#A37670"/>
<path d="M138.831 13.2127C137.532 16.7983 138.918 27.41 141.386 29.9069C144.964 33.5361 151.097 34.1386 154.211 29.769C157.238 25.5446 155.184 11.7392 152.404 9.44558C148.303 6.08496 140.747 7.92133 138.831 13.2127Z" fill="#C49089"/>
<path d="M139.6 22.0564C141.429 21.9257 141.197 17.4546 141.197 17.4546C141.197 17.4546 143.984 16.9175 145.298 13.0996C145.298 13.0996 148.927 15.2771 151.925 14.7254C156.628 13.8109 156.425 7.67757 154.647 6.4509C152.121 4.70889 147.693 7.34368 147.693 7.34368C147.693 7.34368 140.929 5.55085 138.983 10.1381C138.11 10.2097 137.296 10.6098 136.706 11.2577C136.116 11.9057 135.794 12.7532 135.804 13.6294C135.63 16.932 138.243 22.1508 139.6 22.0564Z" fill="#263238"/>
<path d="M140.551 17.9894C141.904 17.739 143.135 17.0442 144.049 16.0151C144.54 15.4588 144.89 14.7922 145.068 14.0719C145.246 13.3516 145.248 12.5989 145.073 11.8778C145.077 11.865 145.086 11.8539 145.097 11.8461C145.108 11.8382 145.121 11.834 145.135 11.834C145.148 11.834 145.161 11.8382 145.172 11.8461C145.183 11.8539 145.192 11.865 145.196 11.8778C145.413 12.6328 145.461 13.4265 145.336 14.2019C145.21 14.9774 144.915 15.7156 144.47 16.3635C144.027 16.9776 143.43 17.4654 142.74 17.7785C142.05 18.0917 141.291 18.2194 140.536 18.1491C140.493 18.1128 140.471 18.0039 140.551 17.9894Z" fill="#263238"/>
<path d="M147.512 7.54746C148.095 6.58503 149.008 5.86775 150.081 5.52963C151.386 5.1593 152.782 5.28335 154.001 5.87803C154.486 6.13221 154.895 6.50946 155.188 6.97193C155.481 7.4344 155.648 7.96581 155.67 8.51283C155.685 9.78197 155.262 11.0174 154.473 12.0114C154.473 12.0114 154.407 12.0114 154.429 12.0114C155.059 11.073 155.381 9.96191 155.351 8.8322C155.331 8.29467 155.16 7.77366 154.857 7.3293C154.554 6.88493 154.131 6.53532 153.638 6.32079C151.693 5.48608 148.862 5.66029 147.613 7.64182C147.577 7.68537 147.468 7.61279 147.512 7.54746Z" fill="#263238"/>
<path d="M140.674 21.8865C140.674 21.8865 138.403 18.4097 136.827 19.2154C135.252 20.0211 136.9 25.0221 138.693 25.7479C138.916 25.8569 139.159 25.9197 139.407 25.9325C139.655 25.9453 139.903 25.9079 140.136 25.8225C140.369 25.7371 140.583 25.6054 140.764 25.4355C140.945 25.2655 141.09 25.0607 141.19 24.8334L140.674 21.8865Z" fill="#C49089"/>
<path d="M137.299 20.6333C137.299 20.6333 137.299 20.6696 137.299 20.6841C137.873 20.9927 138.376 21.4183 138.775 21.9335C139.173 22.4486 139.46 23.0418 139.615 23.6746C139.545 23.5442 139.448 23.4306 139.33 23.3416C139.212 23.2526 139.076 23.1904 138.932 23.1593C138.788 23.1283 138.638 23.129 138.494 23.1616C138.35 23.1942 138.215 23.2578 138.098 23.3479C138.098 23.3479 138.098 23.4205 138.098 23.4133C138.323 23.3492 138.563 23.3567 138.784 23.4347C139.005 23.5127 139.196 23.6574 139.332 23.8488C139.557 24.171 139.747 24.5165 139.898 24.8795C139.956 24.9956 140.159 24.9375 140.123 24.8069C140.224 23.1592 139.034 20.8511 137.299 20.6333Z" fill="#A37670"/>
<path d="M72.2063 245.594H48.4932V241.239H72.2063C90.9909 241.239 96.3476 225.162 97.5307 211.676C98.4598 201.115 99.0259 188.253 99.6284 174.658C101.886 123.719 104.223 71.0449 124.721 71.0449H143.505V75.3999H124.706C108.375 75.3999 105.834 132.879 103.969 174.84C103.359 188.507 102.786 201.413 101.857 212.075C99.9695 233.683 89.4376 245.594 72.2063 245.594Z" fill="#A1B5FF"/>
<path opacity="0.1" d="M143.505 71.0117V75.3667H128.524L127.595 71.0117H143.505Z" fill="#1D2939"/>
<path d="M208.671 101.341H216.67V45.4659H208.671V101.341Z" fill="#4F69FF"/>
<path d="M208.671 48.1084H178.273V98.104H208.671V48.1084Z" fill="#4F69FF"/>
<path opacity="0.1" d="M208.671 48.1084V98.104H201.122L197.732 48.1084H208.671Z" fill="#1D2939"/>
<path d="M132.226 77.6445H154.778V68.7385H132.226V77.6445Z" fill="#FFC727"/>
<path d="M154.778 68.7461H132.226V77.6521H154.778V68.7461Z" fill="#FFC727"/>
<path d="M146.859 77.6449L147.599 68.7461H154.778V77.6449H146.859Z" fill="#4F69FF"/>
<path d="M178.273 95.144H159.242C158.058 95.144 156.922 94.6737 156.085 93.8366C155.248 92.9994 154.778 91.864 154.778 90.6801V56.1013C154.778 54.9174 155.248 53.7819 156.085 52.9448C156.922 52.1077 158.058 51.6374 159.242 51.6374H178.273V95.144Z" fill="#4F69FF"/>
<path opacity="0.1" d="M168.271 95.1488L171.661 51.6494H178.273V95.1488H168.271Z" fill="#1D2939"/>
<path d="M130.839 42.9561C130.114 53.4372 129.286 74.784 133.917 81.048C139.992 89.2645 157.144 94.251 162.225 95.7462C164.402 96.3922 169.621 81.9553 168.329 79.8794C167.037 77.8035 149.334 73.3469 147.94 72.1275C146.546 70.9081 142.133 53.8944 140.036 45.2279C137.321 34.2968 131.137 38.8188 130.839 42.9561Z" fill="#C49089"/>
<path d="M181.408 85.4326C184.203 86.1004 188.442 84.6632 188.58 86.8044C188.703 88.7061 185.676 89.4102 185.676 89.4102C185.676 89.4102 189.349 89.7223 188.899 91.8054C188.449 93.8886 184.965 93.983 184.965 93.983C184.965 93.983 188.333 94.4402 187.73 96.4871C187.128 98.534 183.898 98.817 183.898 98.817C183.898 98.817 184.747 99.4485 183.673 100.704C182.142 102.504 177.032 102.294 174.397 101.553C171.762 100.813 162.638 96.1387 161.252 95.3911L165.876 78.4065C165.876 78.4065 171.181 77.5645 173.925 77.4629C176.669 77.3613 185.793 79.5388 185.408 81.8179C185.023 84.097 178.599 82.4712 176.937 82.4131C175.275 82.355 174.985 82.7252 175.711 83.3349C176.182 83.7632 180.167 85.135 181.408 85.4326Z" fill="#C49089"/>
<path d="M185.509 89.3628C181.22 90.0886 179.216 89.6096 175.282 87.9111C175.202 87.8748 175.137 87.9837 175.217 88.0272C178.919 90.0233 181.35 90.9306 185.553 89.5587C185.763 89.5007 185.72 89.3337 185.509 89.3628Z" fill="#A37670"/>
<path d="M185.132 93.9069C180.61 94.2335 178.44 93.7762 174.186 92.3101C174.128 92.3101 174.085 92.3899 174.143 92.4189C178.2 94.1972 180.639 95.061 185.118 94.1392C185.321 94.1029 185.343 93.8924 185.132 93.9069Z" fill="#A37670"/>
<path d="M183.84 98.7858C179.434 98.7858 177.032 98.3793 173.083 96.4341C173.065 96.4251 173.044 96.4233 173.025 96.4292C173.005 96.435 172.989 96.4481 172.979 96.4656C172.968 96.4832 172.965 96.5039 172.97 96.5237C172.974 96.5435 172.986 96.5607 173.003 96.572C176.836 98.9528 179.833 99.4753 183.825 98.9237C184.094 98.8802 184.116 98.7858 183.84 98.7858Z" fill="#A37670"/>
<path d="M148.833 92.3505C148.833 92.3505 134.992 85.397 132.865 80.0693C130.252 73.4207 129.185 54.0336 130.201 44.0896C131.217 34.1456 138.142 35.3796 140.363 44.1694C142.54 52.7488 147.454 69.8859 147.962 70.6915C148.608 71.7295 156.505 73.682 156.505 73.682" fill="#3B4A5F"/>
<path d="M230.068 36.1044C229.972 36.1044 229.88 36.0661 229.812 35.9981C229.744 35.93 229.706 35.8377 229.706 35.7415V25.5289C229.706 25.4327 229.744 25.3404 229.812 25.2723C229.88 25.2043 229.972 25.166 230.068 25.166C230.165 25.166 230.257 25.2043 230.325 25.2723C230.393 25.3404 230.431 25.4327 230.431 25.5289V35.7415C230.431 35.8377 230.393 35.93 230.325 35.9981C230.257 36.0661 230.165 36.1044 230.068 36.1044Z" fill="#667085"/>
<path d="M211.589 40.9881C211.525 40.9883 211.461 40.9716 211.405 40.9398C211.349 40.908 211.302 40.8621 211.27 40.8066L206.189 31.9587C206.159 31.9176 206.138 31.8707 206.127 31.8211C206.117 31.7714 206.117 31.7201 206.127 31.6704C206.138 31.6207 206.158 31.5738 206.188 31.5326C206.218 31.4915 206.256 31.457 206.3 31.4315C206.344 31.406 206.393 31.3899 206.443 31.3845C206.494 31.379 206.545 31.3841 206.593 31.3996C206.641 31.4151 206.686 31.4406 206.724 31.4743C206.762 31.5081 206.792 31.5495 206.813 31.5958L211.894 40.4437C211.918 40.4845 211.935 40.5298 211.941 40.577C211.948 40.6241 211.945 40.6721 211.933 40.7182C211.921 40.7642 211.899 40.8073 211.87 40.8449C211.841 40.8826 211.805 40.914 211.763 40.9373C211.711 40.9697 211.651 40.9872 211.589 40.9881Z" fill="#667085"/>
<path d="M206.276 113.811C206.212 113.811 206.149 113.794 206.094 113.76C206.054 113.734 206.019 113.699 205.992 113.659C205.965 113.619 205.947 113.574 205.938 113.526C205.929 113.479 205.93 113.43 205.941 113.383C205.951 113.335 205.972 113.291 206 113.252L211.081 104.411C211.105 104.37 211.137 104.333 211.174 104.304C211.212 104.275 211.256 104.254 211.302 104.241C211.348 104.229 211.396 104.225 211.443 104.232C211.491 104.238 211.537 104.253 211.578 104.277C211.62 104.301 211.656 104.333 211.685 104.37C211.714 104.408 211.736 104.452 211.748 104.498C211.761 104.544 211.764 104.592 211.758 104.639C211.752 104.687 211.736 104.733 211.712 104.774L206.632 113.615C206.599 113.679 206.547 113.732 206.484 113.767C206.42 113.802 206.348 113.817 206.276 113.811Z" fill="#667085"/>
<path d="M229.836 120.18C229.74 120.18 229.648 120.141 229.58 120.073C229.512 120.005 229.473 119.913 229.473 119.817V109.619C229.473 109.523 229.512 109.43 229.58 109.362C229.648 109.294 229.74 109.256 229.836 109.256C229.932 109.258 230.023 109.297 230.091 109.364C230.159 109.432 230.197 109.523 230.199 109.619V119.831C230.195 119.925 230.156 120.014 230.088 120.079C230.02 120.144 229.93 120.18 229.836 120.18Z" fill="#667085"/>
<path d="M253.426 113.922C253.363 113.921 253.301 113.904 253.246 113.873C253.191 113.841 253.146 113.795 253.114 113.74L248.033 104.9C248.009 104.858 247.994 104.812 247.988 104.765C247.981 104.718 247.985 104.669 247.997 104.623C248.01 104.577 248.031 104.534 248.06 104.496C248.09 104.458 248.126 104.426 248.167 104.402C248.209 104.379 248.255 104.363 248.302 104.357C248.349 104.351 248.398 104.354 248.444 104.367C248.49 104.379 248.533 104.401 248.571 104.43C248.609 104.459 248.641 104.495 248.665 104.537L253.745 113.377C253.77 113.418 253.786 113.464 253.793 113.511C253.799 113.558 253.797 113.606 253.784 113.652C253.772 113.698 253.751 113.741 253.722 113.779C253.693 113.816 253.656 113.848 253.615 113.871C253.558 113.906 253.493 113.924 253.426 113.922Z" fill="#667085"/>
<path d="M248.52 41.1023C248.455 41.1028 248.393 41.0852 248.338 41.0515C248.297 41.0282 248.26 40.9968 248.231 40.9592C248.202 40.9215 248.181 40.8784 248.168 40.8324C248.156 40.7864 248.153 40.7384 248.16 40.6912C248.167 40.6441 248.183 40.5988 248.207 40.558L253.288 31.71C253.341 31.6374 253.419 31.5869 253.507 31.5683C253.595 31.5498 253.687 31.5646 253.764 31.6097C253.842 31.6549 253.9 31.7272 253.927 31.8128C253.955 31.8984 253.95 31.9911 253.913 32.0729L248.832 40.9209C248.799 40.9748 248.753 41.0197 248.699 41.0514C248.644 41.0831 248.583 41.1006 248.52 41.1023Z" fill="#667085"/>
</svg>
