<svg width="94" height="94" viewBox="0 0 94 94" fill="none" xmlns="http://www.w3.org/2000/svg">
<circle opacity="0.8" cx="47" cy="47" r="47" fill="#F2F4F7"/>
<circle cx="53.5" cy="35.5" r="17.5" stroke="#D0D5DD" stroke-linecap="round" stroke-dasharray="4 4"/>
<path d="M58.896 38.625H22.1119C21.8181 38.6247 21.5365 38.5078 21.3288 38.3001C21.1211 38.0924 21.0042 37.8108 21.0039 37.517V25.108C21.0042 24.8142 21.1211 24.5326 21.3288 24.3249C21.5365 24.1172 21.8181 24.0003 22.1119 24H58.896C59.1897 24.0003 59.4713 24.1172 59.679 24.3249C59.8867 24.5326 60.0036 24.8142 60.0039 25.108V37.517C60.0036 37.8108 59.8867 38.0924 59.679 38.3001C59.4713 38.5078 59.1897 38.6247 58.896 38.625Z" fill="#DEE1E7"/>
<path d="M36.5117 27.3281H26.7617V28.4361H36.5117V27.3281Z" fill="#7891FF"/>
<path d="M49.364 28.6577C49.7311 28.6577 50.0288 28.36 50.0288 27.9929C50.0288 27.6258 49.7311 27.3281 49.364 27.3281C48.9969 27.3281 48.6992 27.6258 48.6992 27.9929C48.6992 28.36 48.9969 28.6577 49.364 28.6577Z" fill="#7891FF"/>
<path d="M51.5827 28.6577C51.9499 28.6577 52.2475 28.36 52.2475 27.9929C52.2475 27.6258 51.9499 27.3281 51.5827 27.3281C51.2156 27.3281 50.918 27.6258 50.918 27.9929C50.918 28.36 51.2156 28.6577 51.5827 28.6577Z" fill="#7891FF"/>
<path d="M53.8054 28.6577C54.1725 28.6577 54.4702 28.36 54.4702 27.9929C54.4702 27.6258 54.1725 27.3281 53.8054 27.3281C53.4383 27.3281 53.1406 27.6258 53.1406 27.9929C53.1406 28.36 53.4383 28.6577 53.8054 28.6577Z" fill="#7891FF"/>
<path d="M58.896 54.3516H22.1119C21.8181 54.3512 21.5365 54.2344 21.3288 54.0267C21.1211 53.819 21.0042 53.5374 21.0039 53.2436V40.8345C21.0042 40.5408 21.1211 40.2592 21.3288 40.0515C21.5365 39.8437 21.8181 39.7269 22.1119 39.7266H58.896C59.1897 39.7269 59.4713 39.8437 59.679 40.0514C59.8867 40.2592 60.0036 40.5408 60.0039 40.8345V53.2436C60.0036 53.5374 59.8867 53.819 59.679 54.0267C59.4713 54.2344 59.1897 54.3512 58.896 54.3516Z" fill="#DEE1E7"/>
<path d="M36.5117 43.0547H26.7617V44.1626H36.5117V43.0547Z" fill="#7891FF"/>
<path d="M49.364 44.3842C49.7311 44.3842 50.0288 44.0866 50.0288 43.7195C50.0288 43.3523 49.7311 43.0547 49.364 43.0547C48.9969 43.0547 48.6992 43.3523 48.6992 43.7195C48.6992 44.0866 48.9969 44.3842 49.364 44.3842Z" fill="#7891FF"/>
<path d="M51.5827 44.3842C51.9499 44.3842 52.2475 44.0866 52.2475 43.7195C52.2475 43.3523 51.9499 43.0547 51.5827 43.0547C51.2156 43.0547 50.918 43.3523 50.918 43.7195C50.918 44.0866 51.2156 44.3842 51.5827 44.3842Z" fill="#7891FF"/>
<path d="M53.8054 44.3842C54.1725 44.3842 54.4702 44.0866 54.4702 43.7195C54.4702 43.3523 54.1725 43.0547 53.8054 43.0547C53.4383 43.0547 53.1406 43.3523 53.1406 43.7195C53.1406 44.0866 53.4383 44.3842 53.8054 44.3842Z" fill="#7891FF"/>
<path d="M58.896 70.0937H22.1119C21.8181 70.0934 21.5365 69.9766 21.3288 69.7689C21.1211 69.5612 21.0042 69.2795 21.0039 68.9858V56.5767C21.0042 56.283 21.1211 56.0013 21.3288 55.7936C21.5365 55.5859 21.8181 55.4691 22.1119 55.4688H58.896C59.1897 55.4691 59.4713 55.5859 59.679 55.7936C59.8867 56.0013 60.0036 56.283 60.0039 56.5767V68.9858C60.0036 69.2795 59.8867 69.5612 59.679 69.7689C59.4713 69.9766 59.1897 70.0934 58.896 70.0937Z" fill="#DEE1E7"/>
<path d="M36.5117 58.7969H26.7617V59.9048H36.5117V58.7969Z" fill="#7891FF"/>
<path d="M49.364 60.1264C49.7311 60.1264 50.0288 59.8288 50.0288 59.4616C50.0288 59.0945 49.7311 58.7969 49.364 58.7969C48.9969 58.7969 48.6992 59.0945 48.6992 59.4616C48.6992 59.8288 48.9969 60.1264 49.364 60.1264Z" fill="#7891FF"/>
<path d="M51.5827 60.1264C51.9499 60.1264 52.2475 59.8288 52.2475 59.4616C52.2475 59.0945 51.9499 58.7969 51.5827 58.7969C51.2156 58.7969 50.918 59.0945 50.918 59.4616C50.918 59.8288 51.2156 60.1264 51.5827 60.1264Z" fill="#7891FF"/>
<path d="M53.8054 60.1264C54.1725 60.1264 54.4702 59.8288 54.4702 59.4616C54.4702 59.0945 54.1725 58.7969 53.8054 58.7969C53.4383 58.7969 53.1406 59.0945 53.1406 59.4616C53.1406 59.8288 53.4383 60.1264 53.8054 60.1264Z" fill="#7891FF"/>
<path d="M57.7694 75.948C63.7131 76.1821 68.7212 71.5537 68.9554 65.61C69.1896 59.6663 64.5611 54.6582 58.6174 54.424C52.6738 54.1898 47.6656 58.8183 47.4314 64.762C47.1973 70.7056 51.8257 75.7138 57.7694 75.948Z" fill="#7891FF"/>
<path d="M59.743 59L59.4992 67.9884H57.2118L56.9618 59H59.743ZM58.3555 72C57.943 72 57.5889 71.8537 57.293 71.5612C56.9972 71.2645 56.8514 70.9094 56.8556 70.4957C56.8514 70.0861 56.9972 69.7351 57.293 69.4426C57.5889 69.1501 57.943 69.0039 58.3555 69.0039C58.7513 69.0039 59.0992 69.1501 59.3992 69.4426C59.6992 69.7351 59.8513 70.0861 59.8555 70.4957C59.8513 70.7715 59.7784 71.0243 59.6367 71.2541C59.4992 71.4798 59.318 71.6615 59.093 71.7994C58.868 71.9331 58.6222 72 58.3555 72Z" fill="white"/>
</svg>
