<svg width="203" height="201" viewBox="0 0 203 201" fill="none" xmlns="http://www.w3.org/2000/svg">
<circle opacity="0.5" cx="90.9126" cy="90.9126" r="90.9126" fill="#C9D7FF"/>
<mask id="mask0_1_5048" style="mask-type:alpha" maskUnits="userSpaceOnUse" x="0" y="0" width="182" height="182">
<circle cx="90.9126" cy="90.9126" r="90.9126" fill="#D0D5DD"/>
</mask>
<g mask="url(#mask0_1_5048)">
<rect opacity="0.6" x="-3.88965" y="39.8651" width="104.039" height="5.83396" rx="2.91698" fill="white"/>
<rect opacity="0.6" x="-18.4736" y="71.9504" width="128.347" height="5.83396" rx="2.91698" fill="white"/>
<rect opacity="0.6" x="-18.4736" y="104.044" width="75.8415" height="5.83396" rx="2.91698" fill="white"/>
<rect opacity="0.6" x="-3.88965" y="7.77979" width="75.8415" height="5.83396" rx="2.91698" fill="white"/>
<rect opacity="0.6" x="-3.88965" y="136.121" width="53.478" height="5.83396" rx="2.91698" fill="white"/>
</g>
<path d="M160.744 173.699L167.811 167.458L136.128 131.585L129.062 137.826L160.744 173.699Z" fill="#7891FF"/>
<path d="M179.917 199.059L190.617 189.619L165.171 160.803L154.471 170.242L179.917 199.059Z" fill="#2741FF"/>
<path d="M64.1024 94.8652C65.1998 89.5037 67.3479 84.4126 70.4228 79.8855C73.4977 75.3584 77.4385 71.4849 82.0178 68.4884C82.6437 68.0746 83.2751 67.6849 83.9121 67.3196C89.4609 64.0858 95.6822 62.1788 102.09 61.7475C108.498 61.3162 114.919 62.3724 120.851 64.8334C126.783 67.2944 132.066 71.0937 136.286 75.9345C140.507 80.7752 143.551 86.5262 145.181 92.7383C147.877 103.088 146.514 114.077 141.372 123.456C136.559 132.193 128.769 138.912 119.421 142.393C110.073 145.874 99.7855 145.884 90.43 142.423C81.0745 138.961 73.2718 132.257 68.4404 123.53C63.609 114.803 62.0697 104.631 64.1024 94.8652Z" fill="white"/>
<path d="M64.1025 94.874C69.974 65.77 103.876 52.1072 128.374 68.7121C159.149 89.857 149.351 137.227 112.693 144.449C83.565 149.923 57.9051 123.911 64.1025 94.874ZM64.1025 94.874C58.0941 123.798 83.6971 149.663 112.657 144.089C148.752 136.919 158.462 89.9564 128.272 69.0227C103.918 52.408 70.1226 65.9506 64.1658 94.8326L64.1025 94.874Z" fill="#263238"/>
<path opacity="0.5" d="M139.719 80.4559C145.026 88.518 147.373 98.1708 146.36 107.769C145.347 117.368 141.037 126.318 134.165 133.095C127.293 139.873 118.283 144.057 108.671 144.936C99.0591 145.814 89.4401 143.333 81.4529 137.914C73.4657 132.495 67.6046 124.474 64.8684 115.218C62.1323 105.962 62.6903 96.044 66.4474 87.1534C70.2046 78.2628 76.9283 70.9501 85.4729 66.4614C94.0175 61.9727 103.854 60.5858 113.307 62.537C124.139 64.7715 133.639 71.2171 139.719 80.4559Z" fill="#7891FF"/>
<path d="M95.0105 151.006C85.5794 149.051 76.9399 144.344 70.1842 137.479C63.4286 130.614 58.8603 121.9 57.057 112.439C55.2537 102.977 56.2965 93.194 60.0533 84.3254C63.8102 75.4568 70.1125 67.9014 78.1633 62.6145C86.214 57.3277 95.6517 54.5468 105.283 54.6236C114.914 54.7004 124.306 57.6314 132.272 63.0459C140.237 68.4605 146.418 76.1154 150.033 85.0428C153.648 93.9701 154.535 103.769 152.581 113.2C149.949 125.842 142.409 136.923 131.615 144.011C120.822 151.099 107.657 153.615 95.0105 151.006ZM96.147 145.55C104.498 147.287 113.177 146.509 121.086 143.314C128.995 140.119 135.779 134.649 140.579 127.598C145.379 120.547 147.98 112.23 148.053 103.7C148.126 95.1704 145.668 86.8106 140.989 79.6782C136.31 72.5458 129.621 66.9613 121.768 63.6311C113.914 60.3009 105.25 59.3747 96.8701 60.9695C88.4904 62.5644 80.7719 66.6087 74.691 72.5908C68.6101 78.573 64.44 86.2242 62.7082 94.5767C60.4003 105.769 62.6243 117.419 68.8925 126.974C75.1607 136.529 84.9617 143.209 96.147 145.55Z" fill="#020066"/>
<path d="M148.316 93.1017C147.108 88.0382 145.025 83.2241 142.163 78.8759C136.058 69.6411 126.715 63.0281 115.976 60.3404C105.237 57.6526 93.8801 59.0851 84.1447 64.3554C74.4093 69.6258 67.0011 78.3516 63.3804 88.8132C59.7596 99.2748 60.1889 110.713 64.5836 120.874C68.9783 131.035 77.0197 139.181 87.1227 143.707C97.2258 148.232 108.658 148.81 119.165 145.324C129.673 141.839 138.494 134.545 143.89 124.878C149.285 115.212 150.865 103.875 148.316 93.1017ZM145.721 111.841C143.773 121.3 138.605 129.789 131.098 135.864C123.59 141.938 114.209 145.22 104.553 145.151C94.8962 145.082 85.5625 141.667 78.1428 135.486C70.7231 129.306 65.6766 120.743 63.8637 111.258C62.0507 101.773 63.5836 91.9528 68.201 83.4716C72.8183 74.9903 80.2343 68.373 89.1846 64.7478C98.135 61.1225 108.066 60.7138 117.284 63.5911C126.502 66.4685 134.436 72.4539 139.735 80.5269C145.771 89.7486 147.912 100.984 145.691 111.779L145.721 111.841ZM148.316 93.1017C147.108 88.0382 145.025 83.2241 142.163 78.8759C136.058 69.6411 126.715 63.0281 115.976 60.3404C105.237 57.6526 93.8801 59.0851 84.1447 64.3554C74.4093 69.6258 67.0011 78.3516 63.3804 88.8132C59.7596 99.2748 60.1889 110.713 64.5836 120.874C68.9783 131.035 77.0197 139.181 87.1227 143.707C97.2258 148.232 108.658 148.81 119.165 145.324C129.673 141.839 138.494 134.545 143.89 124.878C149.285 115.212 150.865 103.875 148.316 93.1017ZM145.721 111.841C143.773 121.3 138.605 129.789 131.098 135.864C123.59 141.938 114.209 145.22 104.553 145.151C94.8962 145.082 85.5625 141.667 78.1428 135.486C70.7231 129.306 65.6766 120.743 63.8637 111.258C62.0507 101.773 63.5836 91.9528 68.201 83.4716C72.8183 74.9903 80.2343 68.373 89.1846 64.7478C98.135 61.1225 108.066 60.7138 117.284 63.5911C126.502 66.4685 134.436 72.4539 139.735 80.5269C145.771 89.7486 147.912 100.984 145.691 111.779L145.721 111.841ZM153.741 91.8848C151.678 83.1375 147.302 75.1054 141.071 68.629C134.84 62.1526 126.983 57.4699 118.322 55.071C109.661 52.6721 100.515 52.6452 91.8396 54.9931C83.1645 57.341 75.28 61.9773 69.0111 68.417C62.7422 74.8567 58.3193 82.8629 56.2054 91.5979C54.0914 100.333 54.364 109.475 56.9947 118.069C59.6254 126.662 64.5175 134.391 71.159 140.446C77.8005 146.5 85.9473 150.659 94.7468 152.485C103.001 154.196 111.553 153.798 119.612 151.329C127.672 148.86 134.979 144.4 140.859 138.36C146.739 132.32 151.001 124.895 153.253 116.772C155.504 108.649 155.672 100.09 153.741 91.8848ZM151.187 113.003C148.829 124.406 142.343 134.537 132.975 141.453C123.606 148.369 112.014 151.583 100.422 150.477C88.8298 149.372 78.054 144.025 70.1614 135.463C62.2689 126.901 57.8153 115.727 57.6551 104.083C57.4949 92.4398 61.6393 81.1469 69.2933 72.3711C76.9473 63.5953 87.572 57.9543 99.1293 56.5304C110.687 55.1064 122.363 57.9997 131.918 64.6552C141.473 71.3107 148.235 81.2598 150.906 92.5941C152.464 99.2657 152.543 106.197 151.137 112.903L151.187 113.003ZM142.154 78.97C136.028 69.7445 126.668 63.1492 115.919 60.4849C105.17 57.8205 93.8133 59.2804 84.0879 64.5767C74.3625 69.8731 66.9746 78.6213 63.3812 89.0962C59.7878 99.571 60.2499 111.012 64.6762 121.163C69.1025 131.314 77.1717 139.438 87.2926 143.933C97.4134 148.428 108.851 148.967 119.35 145.445C129.849 141.922 138.647 134.594 144.009 124.905C149.371 115.215 150.908 103.868 148.316 93.1017C147.097 88.0347 145.003 83.2193 142.128 78.8725L142.154 78.97ZM145.717 111.877C143.769 121.335 138.601 129.825 131.094 135.899C123.587 141.973 114.206 145.255 104.549 145.187C94.8927 145.118 85.5591 141.702 78.1393 135.521C70.7196 129.341 65.6731 120.778 63.8602 111.293C62.0473 101.808 63.5802 91.9881 68.1975 83.5069C72.8149 75.0256 80.2308 68.4083 89.1812 64.7831C98.1315 61.1578 108.062 60.749 117.28 63.6264C126.498 66.5038 134.433 72.4892 139.732 80.5622C145.759 89.774 147.901 100.995 145.691 111.779L145.717 111.877Z" fill="#020066"/>
<path d="M75.1237 120.667C72.8011 116.856 71.2989 112.602 70.7128 108.178C70.384 105.932 70.2831 103.66 70.4116 101.394C70.5522 99.1005 70.9167 96.8261 71.4999 94.6034C72.7142 90.131 74.8548 85.9636 77.7827 82.3714C80.6569 78.8321 84.1667 75.8605 88.1317 73.6095C84.9479 76.6649 82.0791 80.0323 79.5683 83.661C78.3738 85.4505 77.3252 87.3332 76.4327 89.2909C75.5214 91.2129 74.7938 93.2167 74.2595 95.2756C73.1661 99.3878 72.7158 103.644 72.9245 107.894C73.144 112.224 73.8823 116.513 75.1237 120.667Z" fill="white"/>
<path d="M137.295 96.5773C138.489 100.879 138.774 105.381 138.133 109.799C137.827 112.07 137.295 114.305 136.546 116.47C135.78 118.636 134.809 120.723 133.648 122.705C131.253 126.668 128.058 130.089 124.266 132.748C120.509 135.362 116.299 137.259 111.852 138.341C115.749 136.271 119.429 133.814 122.833 131.006C124.471 129.614 125.996 128.096 127.394 126.464C128.794 124.862 130.04 123.131 131.114 121.295C133.289 117.634 134.878 113.655 135.823 109.503C136.834 105.27 137.328 100.93 137.295 96.5773Z" fill="white"/>
</svg>